<?xml version="1.0" encoding="UTF-8" standalone="no"?>
<svg
   xmlns:dc="http://purl.org/dc/elements/1.1/"
   xmlns:cc="http://creativecommons.org/ns#"
   xmlns:rdf="http://www.w3.org/1999/02/22-rdf-syntax-ns#"
   xmlns:svg="http://www.w3.org/2000/svg"
   xmlns="http://www.w3.org/2000/svg"
   xmlns:sodipodi="http://sodipodi.sourceforge.net/DTD/sodipodi-0.dtd"
   xmlns:inkscape="http://www.inkscape.org/namespaces/inkscape"
   width="210mm"
   height="297mm"
   viewBox="0 0 210 297"
   version="1.1"
   id="svg8"
   inkscape:version="1.0.2 (e86c8708, 2021-01-15)"
   sodipodi:docname="HelloWorld.svg">
  <defs
     id="defs2" />
  <sodipodi:namedview
     id="base"
     pagecolor="#ffffff"
     bordercolor="#666666"
     borderopacity="1.0"
     inkscape:pageopacity="0.0"
     inkscape:pageshadow="2"
     inkscape:zoom="0.98994949"
     inkscape:cx="387.02974"
     inkscape:cy="503.55831"
     inkscape:document-units="mm"
     inkscape:current-layer="layer1"
     inkscape:document-rotation="0"
     showgrid="false"
     inkscape:window-width="1252"
     inkscape:window-height="763"
     inkscape:window-x="38"
     inkscape:window-y="27"
     inkscape:window-maximized="0" />
  <metadata
     id="metadata5">
    <rdf:RDF>
      <cc:Work
         rdf:about="">
        <dc:format>image/svg+xml</dc:format>
        <dc:type
           rdf:resource="http://purl.org/dc/dcmitype/StillImage" />
        <dc:title></dc:title>
      </cc:Work>
    </rdf:RDF>
  </metadata>
  <g
     inkscape:label="Layer 1"
     inkscape:groupmode="layer"
     id="layer1">
    <g
       aria-label="Hello

"
       id="text835"
       style="font-style:normal;font-variant:normal;font-weight:normal;font-stretch:normal;font-size:25.4px;line-height:1.25;font-family:'Akaya Telivigala';-inkscape-font-specification:'Akaya Telivigala, Normal';font-variant-ligatures:normal;font-variant-caps:normal;font-variant-numeric:normal;font-variant-east-asian:normal;fill:#000000;fill-opacity:1;stroke:none;stroke-width:0.264583" />
    <g
       aria-label="World
"
       id="text847"
       style="font-style:normal;font-variant:normal;font-weight:normal;font-stretch:normal;font-size:25.4px;line-height:1.25;font-family:'Akaya Telivigala';-inkscape-font-specification:'Akaya Telivigala, Normal';font-variant-ligatures:normal;font-variant-caps:normal;font-variant-numeric:normal;font-variant-east-asian:normal;fill:#000000;fill-opacity:1;stroke:none;stroke-width:0.264583">
      <path
         id="path888"
         style="font-style:normal;font-variant:normal;font-weight:normal;font-stretch:normal;font-size:25.4px;font-family:'Akaya Telivigala';-inkscape-font-specification:'Akaya Telivigala, Normal';font-variant-ligatures:normal;font-variant-caps:normal;font-variant-numeric:normal;font-variant-east-asian:normal;stroke-width:0.264583"
         d="m 126.68069,185.53851 q -1.524,0 -2.413,-1.016 -0.8636,-1.016 -0.8636,-2.7686 0,-1.2954 0.4064,-2.54 0.4318,-1.2446 1.1938,-2.2352 0.762,-0.9906 1.778,-1.5748 1.016,-0.5842 2.2098,-0.5842 0.762,0 1.3462,0.2286 0.6096,0.2286 1.0668,0.5842 -0.0254,-1.7272 -0.1778,-3.0988 -0.1524,-1.3716 -0.7366,-2.54 -0.1016,-0.2032 -0.1778,-0.3556 -0.0508,-0.1778 -0.0508,-0.3302 0,-0.3556 0.2794,-0.6604 0.3048,-0.3048 0.7366,-0.508 0.4318,-0.2032 0.8128,-0.2032 0.6858,0 1.016,0.6096 0.3556,0.5842 0.4572,1.6256 0.1016,1.016 0.1016,2.3368 0,1.9304 -0.1778,3.4798 -0.1778,1.5494 -0.3302,2.7178 -0.1016,0.762 -0.1778,1.3208 -0.0762,0.5588 -0.0762,0.9144 0,1.8034 1.5494,2.1336 0.4064,0.0762 0.4064,0.5334 0,0.2794 -0.1778,0.7112 -0.1524,0.4318 -0.5842,0.7874 -0.4318,0.3302 -1.2446,0.3302 -1.0922,0 -1.4732,-0.7366 -0.381,-0.7366 -0.381,-2.2352 -0.7112,1.2954 -1.8034,2.1844 -1.0922,0.889 -2.5146,0.889 z m 0.7874,-2.7178 q 0.7112,0 1.4224,-0.4572 0.7112,-0.4572 1.27,-1.2446 0.3302,-0.4826 0.5842,-1.0922 0.2794,-0.635 0.508,-1.27 -1.2954,-1.1684 -2.8702,-1.1684 -1.3716,0 -2.1844,0.8382 -0.8128,0.8128 -0.8128,2.032 0,1.0414 0.6096,1.7018 0.6096,0.6604 1.4732,0.6604 z m -7.8871,2.6416 q -0.7366,0 -1.0922,-0.4064 -0.3556,-0.4064 -0.3556,-1.4224 0,-0.4826 0.0762,-1.2446 0.0762,-0.762 0.1778,-1.651 0.1524,-1.0922 0.254,-2.286 0.127,-1.1938 0.127,-2.286 0,-1.5494 -0.1524,-3.2004 -0.127,-1.6764 -0.762,-2.921 -0.2286,-0.508 -0.2286,-0.7366 0,-0.3302 0.2794,-0.635 0.3048,-0.3048 0.7366,-0.508 0.4318,-0.2286 0.8382,-0.2286 0.6604,0 0.9906,0.6096 0.3302,0.5842 0.4318,1.6256 0.1016,1.016 0.1016,2.3368 0,2.0066 -0.1778,3.4798 -0.1524,1.4732 -0.3048,2.5908 -0.1016,0.7366 -0.2032,1.397 -0.0762,0.6604 -0.0762,1.1938 0,0.889 0.2794,1.2954 0.3048,0.381 0.9652,0.762 0.1778,0.1016 0.254,0.2032 0.1016,0.0762 0.1016,0.254 0,0.2032 -0.2032,0.635 -0.2032,0.4318 -0.7112,0.7874 -0.4826,0.3556 -1.3462,0.3556 z m -8.73958,0.0254 q -0.4064,0 -0.6604,-0.1524 -0.2286,-0.127 -0.1524,-0.4572 0.2794,-1.0922 0.4572,-2.2098 0.2032,-1.143 0.2032,-2.1844 0,-1.3462 -0.1778,-1.9558 -0.1524,-0.635 -0.4318,-0.8636 -0.2794,-0.254 -0.6858,-0.381 -0.1778,-0.0762 -0.3302,-0.2032 -0.127,-0.127 -0.127,-0.3556 0,-0.3556 0.2794,-0.7874 0.2794,-0.4318 0.7874,-0.7366 0.508,-0.3302 1.1684,-0.3302 0.8636,0 1.1938,0.6096 0.3556,0.5842 0.3556,1.5494 0.4572,-1.016 1.1176,-1.6002 0.6858,-0.6096 1.7018,-0.6096 0.6858,0 1.143,0.3048 0.4572,0.3048 0.4572,0.9906 0,0.6858 -0.4572,1.2954 -0.4318,0.5842 -0.889,0.5842 -0.0762,0 -0.1778,-0.0254 -0.1016,-0.0254 -0.1778,-0.127 -0.3302,-0.4064 -0.8128,-0.4064 -0.7366,0 -1.2954,0.9652 -0.5588,0.9652 -0.6096,2.667 0.0254,0.635 0.0254,1.2954 0.0254,0.6604 0.0254,0.9652 0,0.9398 -0.5334,1.5494 -0.508,0.6096 -1.397,0.6096 z m -9.06979,0.0508 q -1.7526,0 -2.819398,-0.9398 -1.0414,-0.9652 -1.0414,-2.8194 0,-0.8636 0.2286,-1.6764 0.254,-0.8128 0.6604,-1.524 -0.4064,0.254 -0.6096,0.254 -0.3048,0 -0.4318,-0.3302 -0.1016,-0.3556 -0.1016,-0.6858 0,-0.5842 0.2286,-0.9144 0.254,-0.3556 0.4826,-0.5334 0.5334,-0.4572 1.676398,-0.9906 1.143,-0.5588 2.7432,-0.5588 2.1844,0 3.3782,1.2192 1.2192,1.2192 1.2192,3.4036 0,1.7018 -0.7112,3.0988 -0.7112,1.3716 -1.9812,2.1844 -1.2446,0.8128 -2.921,0.8128 z m 0.7874,-2.5908 q 1.27,0 2.1336,-0.7874 0.889,-0.8128 0.889,-2.1336 0,-1.3716 -0.889,-1.9558 -0.889,-0.5842 -2.0574,-0.5842 -0.5334,0 -0.9652,0.1016 -0.4318,0.1016 -0.8128,0.254 -0.3556,0.508 -0.635,1.143 -0.279398,0.635 -0.279398,1.397 0,1.27 0.761998,1.9304 0.762,0.635 1.8542,0.635 z m -21.652704,2.6162 q -0.8636,0 -1.3462,-0.4826 -0.4572,-0.508 -0.508,-1.905 -0.0254,-1.4986 -0.1524,-2.9718 -0.127,-1.4732 -0.4064,-2.794 -0.381,-1.9304 -1.0414,-3.4798 -0.6604,-1.5494 -1.8542,-2.667 -0.2032,-0.2032 -0.3302,-0.381 -0.127,-0.1778 -0.127,-0.4064 0,-0.5334 0.5588,-1.016 0.5588,-0.508 1.3208,-0.508 0.889,0 1.524,0.762 0.635,0.762 1.0922,2.1336 0.5334,1.397 0.8382,3.048 0.3048,1.651 0.4064,3.3782 0.127,1.7018 0.127,3.302 0,0.5588 0.1524,0.7366 0.1524,0.1778 0.5334,0.1778 0.8382,0 1.651,-0.508 0.8382,-0.508 1.4986,-1.3716 0.6858,-0.889 1.0922,-1.9558 0.4064,-1.0668 0.4318,-2.159 0.0254,-1.143 -0.4064,-2.2098 -0.4064,-1.0922 -1.0668,-1.8542 -0.1778,-0.2032 -0.2794,-0.3556 -0.0762,-0.1778 -0.0762,-0.3556 0,-0.4064 0.3302,-0.7874 0.3302,-0.381 0.762,-0.635 0.4318,-0.254 0.7366,-0.254 0.635,0 1.0668,0.9398 0.4572,0.9144 0.762,2.2352 0.4318,1.6764 0.6096,3.7592 0.1778,2.0828 0.1778,4.3942 0,0.635 0.127,0.8636 0.127,0.2286 0.5588,0.2286 0.9144,0 1.778,-0.6604 0.8636,-0.6604 1.524,-1.8034 0.6858,-1.1684 1.0668,-2.6416 0.4064,-1.4986 0.4064,-3.1496 0,-1.2446 -0.2032,-2.0066 -0.1778,-0.7874 -0.3556,-1.1176 -0.254,-0.4826 -0.254,-0.8128 0,-0.381 0.3302,-0.7112 0.3556,-0.3556 0.838199,-0.5842 0.4826,-0.2286 0.8382,-0.2286 0.5588,0 0.7874,0.4826 0.254,0.4572 0.3048,1.143 0.0762,0.6858 0.0762,1.2954 0,1.7526 -0.381,3.683 -0.3556,1.905 -1.0414,3.7338 -0.685799,1.8034 -1.650999,3.2766 -0.9398,1.4478 -2.1336,2.3368 -1.1938,0.8636 -2.5654,0.8636 -0.9144,0 -1.3462,-0.4064 -0.4318,-0.4064 -0.5588,-1.143 -0.127,-0.7366 -0.127,-1.7272 0,-0.5842 0,-1.0922 0.0254,-0.5334 0.0254,-0.9652 -1.1684,2.6162 -2.8194,3.9878 -1.651,1.3462 -3.302,1.3462 z M 123.28384,100.1159 q -1.7526,0 -2.8194,-0.939802 -1.0414,-0.9652 -1.0414,-2.8194 0,-0.8636 0.2286,-1.6764 0.254,-0.8128 0.6604,-1.524 -0.4064,0.254 -0.6096,0.254 -0.3048,0 -0.4318,-0.3302 -0.1016,-0.3556 -0.1016,-0.6858 0,-0.5842 0.2286,-0.9144 0.254,-0.3556 0.4826,-0.5334 0.5334,-0.4572 1.6764,-0.9906 1.143,-0.5588 2.7432,-0.5588 2.1844,0 3.3782,1.2192 1.2192,1.2192 1.2192,3.4036 0,1.7018 -0.7112,3.0988 -0.7112,1.3716 -1.9812,2.1844 -1.2446,0.812802 -2.921,0.812802 z m 0.7874,-2.590802 q 1.27,0 2.1336,-0.7874 0.889,-0.8128 0.889,-2.1336 0,-1.3716 -0.889,-1.9558 -0.889,-0.5842 -2.0574,-0.5842 -0.5334,0 -0.9652,0.1016 -0.4318,0.1016 -0.8128,0.254 -0.3556,0.508 -0.635,1.143 -0.2794,0.635 -0.2794,1.397 0,1.27 0.762,1.9304 0.762,0.635 1.8542,0.635 z m -8.7253,2.514602 q -0.7366,0 -1.0922,-0.406402 -0.3556,-0.4064 -0.3556,-1.4224 0,-0.4826 0.0762,-1.2446 0.0762,-0.762 0.1778,-1.651 0.1524,-1.0922 0.254,-2.286 0.127,-1.1938 0.127,-2.286 0,-1.5494 -0.1524,-3.2004 -0.127,-1.6764 -0.762,-2.921 -0.2286,-0.508 -0.2286,-0.7366 0,-0.3302 0.2794,-0.635 0.3048,-0.3048 0.7366,-0.508 0.4318,-0.2286 0.8382,-0.2286 0.6604,0 0.9906,0.6096 0.3302,0.5842 0.4318,1.6256 0.1016,1.016 0.1016,2.3368 0,2.0066 -0.1778,3.4798 -0.1524,1.4732 -0.3048,2.5908 -0.1016,0.7366 -0.2032,1.397 -0.0762,0.6604 -0.0762,1.1938 0,0.889 0.2794,1.2954 0.3048,0.381 0.9652,0.762 0.1778,0.1016 0.254,0.2032 0.1016,0.0762 0.1016,0.254 0,0.2032 -0.2032,0.635 -0.2032,0.4318 -0.7112,0.7874 -0.4826,0.355602 -1.3462,0.355602 z m -5.8043,0 q -0.7366,0 -1.0922,-0.406402 -0.3556,-0.4064 -0.3556,-1.4224 0,-0.4826 0.0762,-1.2446 0.0762,-0.762 0.1778,-1.651 0.1524,-1.0922 0.254,-2.286 0.127,-1.1938 0.127,-2.286 0,-1.5494 -0.1524,-3.2004 -0.127,-1.6764 -0.762,-2.921 -0.2286,-0.508 -0.2286,-0.7366 0,-0.3302 0.2794,-0.635 0.3048,-0.3048 0.7366,-0.508 0.4318,-0.2286 0.8382,-0.2286 0.6604,0 0.9906,0.6096 0.3302,0.5842 0.4318,1.6256 0.1016,1.016 0.1016,2.3368 0,2.0066 -0.1778,3.4798 -0.1524,1.4732 -0.3048,2.5908 -0.1016,0.7366 -0.2032,1.397 -0.0762,0.6604 -0.0762,1.1938 0,0.889 0.2794,1.2954 0.3048,0.381 0.9652,0.762 0.1778,0.1016 0.254,0.2032 0.1016,0.0762 0.1016,0.254 0,0.2032 -0.2032,0.635 -0.2032,0.4318 -0.7112,0.7874 -0.4826,0.355602 -1.3462,0.355602 z m -8.75625,0.0762 q -1.930402,0 -3.022602,-1.092202 -1.0668,-1.1176 -1.0668,-3.0988 0,-1.8034 0.7874,-3.2766 0.7874,-1.4732 2.1082,-2.3368 1.346202,-0.889 2.946402,-0.889 1.524,0 2.4384,0.762 0.9144,0.7366 0.9144,1.9812 0,0.9906 -0.6096,1.8288 -0.6096,0.8382 -1.6256,1.3462 -1.016,0.4826 -2.2606,0.4826 -1.524002,0 -2.489202,-0.6858 0.0254,1.1684 0.7874,1.8796 0.787402,0.7112 2.006602,0.7112 0.7366,0 1.4986,-0.254 0.7874,-0.2794 1.3462,-0.7366 0.3556,-0.3048 0.6604,-0.3048 0.254,0 0.4064,0.1778 0.1778,0.1524 0.1778,0.4064 0,0.5588 -0.9652,1.4732 -1.7018,1.625602 -4.0386,1.625602 z m 0.381,-5.969002 q 0.9144,0 1.524,-0.381 0.6096,-0.381 0.6096,-0.9652 0,-0.4826 -0.4064,-0.7366 -0.4064,-0.2794 -1.1176,-0.2794 -0.9398,0 -1.651,0.508 -0.685802,0.4826 -0.990602,1.3716 0.3556,0.2286 0.914402,0.3556 0.5588,0.127 1.1176,0.127 z M 82.19497,100.0651 q -0.9906,0 -0.9906,-0.711202 0,-0.2032 0.0762,-0.5334 0.5334,-2.667 0.762,-5.4102 -0.381,0.1016 -0.6096,0.1016 -0.254,0 -0.254,-0.4572 0,-0.6096 0.3048,-1.3716 0.3048,-0.762 0.7112,-1.1176 0,-1.3462 -0.0762,-2.2352 -0.0508,-0.9144 -0.2286,-1.6002 -0.1778,-0.6858 -0.5588,-1.3208 -0.2286,-0.3556 -0.2286,-0.5334 0,-0.3302 0.3302,-0.635 0.3556,-0.3302 0.8382,-0.5588 0.508,-0.2286 0.9398,-0.2286 0.812799,0 1.066799,0.7366 0.2794,0.7112 0.2794,1.8796 -0.0254,0.5588 -0.1016,1.6002 -0.0762,1.0414 -0.2286,2.5654 1.6002,-0.1016 3.1242,-0.1524 1.524,-0.0508 2.921,-0.0508 h 1.8796 v -0.7112 q 0,-2.2098 -0.5842,-3.8862 -0.1778,-0.4318 -0.1778,-0.6096 0,-0.508 0.635,-0.9398 0.6604,-0.4318 1.3716,-0.4318 0.7874,0 1.0414,0.5842 0.2794,0.5588 0.2794,1.6002 0,0.6858 -0.127,1.8542 -0.127,1.1684 -0.3556,2.8448 -0.2286,1.778 -0.3556,2.9464 -0.127,1.143 -0.127,2.032 0,1.6764 0.8636,2.4892 0.3302,0.381 0.3302,0.762 0,0.5842 -0.6858,1.0414 -0.6858,0.431802 -1.651,0.431802 -0.6096,0 -0.9652,-0.330202 -0.3556,-0.3302 -0.3556,-1.4224 0,-0.381 0.0762,-1.143 0.0762,-0.762 0.254,-1.9304 0.1016,-0.7366 0.1778,-1.4224 0.1016,-0.6858 0.1524,-1.2954 -0.1778,0.2286 -0.3556,0.3556 -0.1524,0.127 -0.4318,0.1016 -0.9144,-0.0508 -1.8288,-0.0762 -0.889,-0.0508 -1.778,-0.0508 -1.8542,0 -3.5306,0.2286 -0.0254,0.1778 -0.0508,0.6096 0,0.4064 0,0.6858 0,1.0922 0.1016,2.2606 0.1016,1.1684 0.2032,2.0828 0.0762,0.635 -0.6096,1.016 -0.685799,0.355602 -1.473199,0.355602 z" />
    </g>
    <path
       style="fill:#000000;stroke-width:0.166745"
       d="m 100.29521,162.48824 c -6.80456,-1.05953 -12.30337,-5.77037 -14.46213,-12.38971 -0.8215,-2.51896 -0.86947,-3.46095 -0.8121,-15.94849 l 0.0529,-11.50541 0.45839,-0.77976 c 1.25974,-2.14296 3.94553,-2.92063 6.04134,-1.74926 l 0.75368,0.42124 v -2.64798 c 0,-1.45638 0.0815,-3.02806 0.18114,-3.49262 0.24584,-1.14628 1.064397,-2.30784 2.056827,-2.91868 0.68782,-0.42334 1.02517,-0.51391 2.08431,-0.55961 1.12657,-0.0486 1.3677,-0.002 2.22246,0.43276 l 0.95878,0.48728 v -0.52811 c 0,-2.25466 2.069383,-4.17255 4.502123,-4.17255 0.90397,0 1.23604,0.0859 2.00094,0.5173 1.03089,0.58148 1.90241,1.60225 2.16008,2.53001 0.0949,0.3416 0.1729,1.32142 0.17341,2.17737 5.1e-4,0.85596 0.0572,1.52745 0.126,1.4922 1.53802,-0.78824 1.84904,-0.8808 2.95972,-0.8808 0.99458,0 1.30286,0.0761 2.08431,0.51426 0.99663,0.55887 1.86877,1.65101 2.16226,2.70771 0.10705,0.38541 0.17066,4.28303 0.17124,10.49281 5e-4,5.4338 0.0587,9.87964 0.12934,9.87964 0.0706,0 0.55034,-0.84761 1.06602,-1.88358 1.08249,-2.17468 1.55065,-2.78774 2.59712,-3.40102 1.06364,-0.62333 2.98767,-0.73996 4.09883,-0.24844 1.26554,0.55981 1.90633,1.15634 2.46826,2.29778 0.48358,0.9823 0.51694,1.15971 0.44321,2.35718 -0.0796,1.29347 -0.0836,1.3027 -3.48154,8.13233 -1.87099,3.76055 -3.66245,7.43728 -3.98101,8.1705 -0.83553,1.92306 -2.26966,3.96883 -3.86598,5.51478 -1.6638,1.6113 -2.99485,2.53413 -5.03883,3.4935 -3.28845,1.54347 -6.74685,2.04234 -10.31104,1.48737 z m 6.95072,-1.90575 c 2.42325,-0.65767 5.02185,-2.07579 6.9031,-3.7672 1.80832,-1.62583 2.31335,-2.48415 6.86094,-11.66009 3.93167,-7.93316 4.38059,-8.92279 4.38714,-9.6712 0.0231,-2.64648 -2.882,-4.10763 -4.98214,-2.50578 -0.42154,0.32154 -0.88051,1.03585 -1.6447,2.55972 -1.24714,2.48695 -1.51614,2.78072 -2.54632,2.78072 -0.6391,0 -0.81971,-0.0819 -1.25519,-0.5693 l -0.50867,-0.5693 0.0638,-10.36396 0.0638,-10.36398 -0.44754,-0.67699 c -0.50798,-0.7684 -1.60722,-1.38437 -2.4705,-1.38437 -0.8624,0 -1.96246,0.61601 -2.47049,1.38343 l -0.44754,0.67606 -0.0413,7.76605 c -0.0227,4.27133 -0.0804,7.93488 -0.12824,8.14123 -0.11431,0.49332 -0.98631,0.53028 -1.24193,0.0526 -0.11386,-0.21275 -0.17261,-3.97847 -0.17261,-11.06388 v -10.74134 l -0.37915,-0.56261 c -0.77302,-1.14708 -2.02346,-1.66174 -3.24092,-1.33391 -0.90283,0.2431 -1.52727,0.76373 -1.89981,1.58398 -0.29048,0.6396 -0.30909,1.33079 -0.31253,11.61023 -0.003,8.27474 -0.0523,10.97874 -0.20376,11.13022 -0.2572,0.25721 -0.84331,0.25721 -1.10052,0 -0.150603,-0.1506 -0.201003,-2.42937 -0.203753,-9.21266 -0.003,-8.40563 -0.0244,-9.05748 -0.3115,-9.67955 -0.53944,-1.16881 -1.4324,-1.75082 -2.68625,-1.75082 -1.25385,0 -2.14681,0.58201 -2.68626,1.75082 -0.28885,0.62587 -0.30805,1.31593 -0.31149,11.19319 -0.003,9.10928 -0.037,10.5539 -0.25161,10.73198 -0.353497,0.29338 -1.027497,0.0751 -1.147177,-0.37155 -0.0556,-0.20735 -0.10205,-3.10076 -0.1033,-6.42979 -0.002,-6.5618 0.005,-6.50102 -0.94617,-7.40126 -1.44018,-1.36263 -3.70393,-0.92601 -4.65695,0.89821 -0.19535,0.37392 -0.23523,2.26218 -0.23523,11.1368 0,6.47606 0.0702,11.31636 0.17825,12.28508 0.44033,3.94893 2.04341,7.30511 4.81143,10.07313 2.385307,2.38531 5.157397,3.87769 8.516657,4.58502 1.632283,0.3437 5.542663,0.204 7.248433,-0.25895 z M 75.159532,156.2963 c -1.719537,-2.72128 -3.476467,-7.09682 -4.507003,-11.22447 -0.938235,-3.75795 -1.086296,-5.16053 -1.082532,-10.25481 0.003,-4.12811 0.04779,-4.91637 0.386279,-6.80585 0.84151,-4.69736 2.051334,-8.36537 4.134954,-12.53657 1.222101,-2.44653 1.522,-2.83923 2.04215,-2.67414 0.53724,0.17051 0.43848,0.60832 -0.55823,2.47478 -2.234791,4.18494 -3.784734,8.89869 -4.534027,13.78907 -0.366452,2.39172 -0.418466,8.82181 -0.0897,11.08854 0.757212,5.22069 2.228772,9.80831 4.586697,14.29912 0.83439,1.58915 0.99441,2.01505 0.84579,2.25105 -0.3431,0.54482 -0.6975,0.4271 -1.224381,-0.40672 z m 58.553808,0.58108 c -0.11005,-0.11005 -0.2001,-0.2944 -0.2001,-0.40966 0,-0.11526 0.51879,-1.20703 1.15286,-2.42614 2.09647,-4.03084 3.63533,-8.83664 4.28999,-13.3975 0.41969,-2.9239 0.42177,-8.83312 0.004,-11.57977 -0.76322,-5.01855 -2.36392,-9.815 -4.71767,-14.13637 -0.77742,-1.42731 -0.84209,-1.79521 -0.36803,-2.09372 0.40989,-0.25811 0.67668,0.0358 1.61603,1.7803 2.19367,4.07397 3.78906,8.85588 4.64106,13.91084 0.24192,1.43531 0.30101,2.71373 0.29852,6.4584 -0.003,4.10171 -0.0486,4.92109 -0.37735,6.7452 -0.89851,4.98495 -2.39169,9.44188 -4.4159,13.18083 -1.16805,2.15751 -1.44759,2.44346 -1.92346,1.96759 z m -56.34008,-7.77361 c -0.25689,-0.16271 -1.41401,-2.39741 -2.00677,-3.87562 -2.83858,-7.07874 -2.622597,-15.08555 0.59479,-22.04957 0.87052,-1.88424 1.27993,-2.45151 1.76929,-2.45151 0.6647,0 0.61482,0.45701 -0.23463,2.14974 -1.03509,2.06264 -1.87409,4.46477 -2.37207,6.79144 -0.335367,1.56689 -0.387985,2.27931 -0.386436,5.23214 0.0013,2.63287 0.0712,3.76169 0.303858,4.91293 0.454178,2.24734 1.201738,4.44319 2.293538,6.73695 0.53983,1.13412 0.94079,2.12794 0.89101,2.20847 -0.15862,0.25665 -0.66718,0.46246 -0.85258,0.34503 z m 54.77854,0.0144 c -0.53019,-0.12119 -0.4533,-0.54423 0.439,-2.41524 1.89659,-3.97687 2.5904,-6.78036 2.71456,-10.96883 0.13742,-4.6359 -0.64886,-8.3563 -2.63334,-12.45996 -0.54216,-1.12113 -0.94182,-2.15286 -0.88814,-2.29274 0.16572,-0.43188 0.84209,-0.29766 1.22748,0.24357 0.53575,0.75238 1.64456,3.23486 2.19813,4.9213 2.26529,6.90108 1.77048,14.39672 -1.37696,20.85914 -0.85943,1.7646 -1.22014,2.21804 -1.68073,2.11276 z m -53.24915,-6.04991 c -0.0576,-0.0931 -0.32511,-0.82151 -0.59454,-1.61857 -1.2931,-3.82552 -1.43066,-7.84212 -0.40357,-11.7843 0.58556,-2.24747 1.00245,-3.10227 1.513,-3.10227 0.22786,0 0.45826,0.11458 0.512,0.25462 0.0537,0.14004 -0.13342,0.9516 -0.41589,1.80346 -1.38121,4.16538 -1.36535,8.84142 0.0431,12.71903 0.23722,0.65306 0.43131,1.30159 0.43131,1.44118 0,0.4032 -0.87125,0.63344 -1.08546,0.28685 z m 51.1686,-0.0824 c -0.0579,-0.15078 0.12916,-0.96243 0.4156,-1.80368 1.37316,-4.03281 1.37289,-8.41826 -6.3e-4,-12.56093 -0.28247,-0.85186 -0.46962,-1.66342 -0.41588,-1.80346 0.0538,-0.14004 0.29031,-0.25462 0.52572,-0.25462 0.35156,0 0.48842,0.14091 0.76608,0.78866 0.54316,1.26714 1.11857,3.71147 1.32496,5.62845 0.30934,2.87313 -0.16981,6.44714 -1.23352,9.20083 -0.31629,0.8188 -0.4474,0.98157 -0.82645,1.02604 -0.29919,0.0351 -0.48585,-0.0393 -0.55572,-0.22129 z"
       id="path865" />
    <rect
       style="fill:none;stroke:#ff0000;stroke-width:0.711336"
       id="rect867"
       width="100.22973"
       height="129.35843"
       x="54.029842"
       y="69.502335" />
  </g>
</svg>
