<?xml version="1.0" encoding="utf-8"?>
<!-- Generator: Fusion 360, Shaper Origin Export Add-In, Version 1.5.0  -->
<svg enable-background="new 0 0 8.15 6" height="6cm" shaper:fusionaddin="version:1.5.0" version="1.1" viewBox="0 0 8.15 6" width="8.15cm" x="0cm" xml:space="preserve" xmlns="http://www.w3.org/2000/svg" xmlns:shaper="http://www.shapertools.com/namespaces/shaper" xmlns:xlink="http://www.w3.org/1999/xlink" y="0cm"><path d="M7.825,0.5 L7.5,0.5 7.5,0 0,0 0,0.5 -0.325,0.5 -0.325,5.5 0,5.5 0,6 7.5,6 7.5,5.5 7.825,5.5 7.825,0.5z" fill="rgb(0,0,0)" shaper:cutDepth="0.003" shaper:pathType="exterior" transform="matrix(1,0,0,-1,0.325,6)" vector-effect="non-scaling-stroke" /><path d="M4.7500002,4 L4.7500002,5.5 7,5.5 7,2.4 4.7500002,2.4 4.7500002,3.6 5.2500001,3.6 5.2500001,4 4.7500002,4z" fill="rgb(255,255,255)" shaper:cutDepth="0.003" shaper:pathType="interior" stroke="rgb(0,0,0)" transform="matrix(1,0,0,-1,0.325,6)" vector-effect="non-scaling-stroke" /><path d="M2.7500002,2 L2.7500002,0.5 0.5,0.5 0.5,3.6 2.7500002,3.6 2.7500002,2.4 2.2500001,2.4 2.2500001,2 2.7500002,2z" fill="rgb(255,255,255)" shaper:cutDepth="0.003" shaper:pathType="interior" stroke="rgb(0,0,0)" transform="matrix(1,0,0,-1,0.325,6)" vector-effect="non-scaling-stroke" /><path d="M2.7500002,4.5 L2.7500002,4 0.5,4 0.5,5.5 4.3500002,5.5 4.3500002,4 3.1500002,4 3.1500002,4.5 2.7500002,4.5z" fill="rgb(255,255,255)" shaper:cutDepth="0.003" shaper:pathType="interior" stroke="rgb(0,0,0)" transform="matrix(1,0,0,-1,0.325,6)" vector-effect="non-scaling-stroke" /><path d="M4.7500002,2 L7,2 7,0.5 3.1500002,0.5 3.1500002,2 4.3500002,2 4.3500002,1.5 4.7500002,1.5 4.7500002,2z" fill="rgb(255,255,255)" shaper:cutDepth="0.003" shaper:pathType="interior" stroke="rgb(0,0,0)" transform="matrix(1,0,0,-1,0.325,6)" vector-effect="non-scaling-stroke" /><path d="M3.1500002,3.6 L4.3500002,3.6 4.3500002,2.4 3.1500002,2.4 3.1500002,3.6z" fill="rgb(255,255,255)" shaper:cutDepth="0.003" shaper:pathType="interior" stroke="rgb(0,0,0)" transform="matrix(1,0,0,-1,0.325,6)" vector-effect="non-scaling-stroke" /></svg>