<?xml version="1.0" encoding="utf-8"?>
<!-- Generator: Fusion 360, Shaper Origin Export Add-In, Version 1.5.0  -->
<svg enable-background="new 0 0 7.575 7.575" height="7.575cm" shaper:fusionaddin="version:1.5.0" version="1.1" viewBox="0 0 7.575 7.575" width="7.575cm" x="0cm" xml:space="preserve" xmlns="http://www.w3.org/2000/svg" xmlns:shaper="http://www.shapertools.com/namespaces/shaper" xmlns:xlink="http://www.w3.org/1999/xlink" y="0cm"><path d="M7.575,0 L7.575,7.575 0,7.575 0,0 7.575,0z" fill="rgb(0,0,0)" shaper:cutDepth="0.003" shaper:pathType="exterior" transform="matrix(1,0,0,-1,-0,7.575)" vector-effect="non-scaling-stroke" /><path d="M1.275,0.775 L6.275,0.775 6.275,0.5 1.275,0.5 1.275,0.775z" fill="rgb(255,255,255)" shaper:cutDepth="0.003" shaper:pathType="interior" stroke="rgb(0,0,0)" transform="matrix(1,0,0,-1,-0,7.575)" vector-effect="non-scaling-stroke" /><path d="M6.8,6.275 L7.075,6.275 7.075,1.275 6.8,1.275 6.8,6.275z" fill="rgb(255,255,255)" shaper:cutDepth="0.003" shaper:pathType="interior" stroke="rgb(0,0,0)" transform="matrix(1,0,0,-1,-0,7.575)" vector-effect="non-scaling-stroke" /><path d="M4.0875,3.4875 L3.4875,3.4875 3.4875,4.0875 4.0875,4.0875 4.0875,3.4875z" fill="rgb(255,255,255)" shaper:cutDepth="0.003" shaper:pathType="interior" stroke="rgb(0,0,0)" transform="matrix(1,0,0,-1,-0,7.575)" vector-effect="non-scaling-stroke" /><path d="M0.5,6.275 L0.775,6.275 0.775,1.275 0.5,1.275 0.5,6.275z" fill="rgb(255,255,255)" shaper:cutDepth="0.003" shaper:pathType="interior" stroke="rgb(0,0,0)" transform="matrix(1,0,0,-1,-0,7.575)" vector-effect="non-scaling-stroke" /><path d="M1.275,7.075 L6.275,7.075 6.275,6.8 1.275,6.8 1.275,7.075z" fill="rgb(255,255,255)" shaper:cutDepth="0.003" shaper:pathType="interior" stroke="rgb(0,0,0)" transform="matrix(1,0,0,-1,-0,7.575)" vector-effect="non-scaling-stroke" /></svg>