<?xml version="1.0" encoding="utf-8"?>
<!-- Generator: Fusion 360, Shaper Origin Export Add-In, Version 1.6.3  -->
<svg xmlns="http://www.w3.org/2000/svg" xmlns:xlink="http://www.w3.org/1999/xlink" xmlns:shaper="http://www.shapertools.com/namespaces/shaper" shaper:fusionaddin="version:1.6.3" width="20cm" height="20cm" version="1.1" x="0cm" y="0cm" viewBox="0 0 20 20" enable-background="new 0 0 20 20" xml:space="preserve"><path d="M0.53,-4.02 L0,-4.02 0,0 0.53,0 0.53,3.98 0,3.98 0,7.99 2.5,7.99 2.5,7.585 5.833,7.585 5.833,7.99 8.3335,7.99 8.3335,7.585 11.6665,7.585 11.6665,7.99 14.167,7.99 14.167,7.585 17.5,7.585 17.5,7.99 20,7.99 20,3.98 19.47,3.98 19.47,0 20,0 20,-4.02 19.47,-4.02 19.47,-8 20,-8 20,-12.01 17.5,-12.01 17.5,-11.605 14.167,-11.605 14.167,-12.01 11.6665,-12.01 11.6665,-11.605 8.3335,-11.605 8.3335,-12.01 5.833,-12.01 5.833,-11.605 2.5,-11.605 2.5,-12.01 0,-12.01 0,-8 0.53,-8 0.53,-4.02z" transform="matrix(1,0,0,-1,-0,7.99)" fill="rgb(0,0,0)" shaper:cutDepth="0.0056" stroke-linecap="round" stroke-linejoin="round" /><path d="M17.5,-5.0733333 L17.5,-5.4783333 14.167,-5.4783333 14.167,-5.0733333 17.5,-5.0733333z" transform="matrix(1,0,0,-1,-0,7.99)" fill="rgb(255,255,255)" stroke="rgb(0,0,0)" stroke-width="0.0010cm" stroke-linecap="round" stroke-linejoin="round" shaper:cutDepth="0.0056" /><path d="M5.833,-5.0733333 L5.833,-5.4783333 2.5,-5.4783333 2.5,-5.0733333 5.833,-5.0733333z" transform="matrix(1,0,0,-1,-0,7.99)" fill="rgb(255,255,255)" stroke="rgb(0,0,0)" stroke-width="0.0010cm" stroke-linecap="round" stroke-linejoin="round" shaper:cutDepth="0.0056" /><path d="M11.6665,1.4583333 L11.6665,1.0533333 8.3335,1.0533333 8.3335,1.4583333 11.6665,1.4583333z" transform="matrix(1,0,0,-1,-0,7.99)" fill="rgb(255,255,255)" stroke="rgb(0,0,0)" stroke-width="0.0010cm" stroke-linecap="round" stroke-linejoin="round" shaper:cutDepth="0.0056" /><path d="M17.5,1.4583333 L17.5,1.0533333 14.167,1.0533333 14.167,1.4583333 17.5,1.4583333z" transform="matrix(1,0,0,-1,-0,7.99)" fill="rgb(255,255,255)" stroke="rgb(0,0,0)" stroke-width="0.0010cm" stroke-linecap="round" stroke-linejoin="round" shaper:cutDepth="0.0056" /><path d="M5.833,1.4583333 L5.833,1.0533333 2.5,1.0533333 2.5,1.4583333 5.833,1.4583333z" transform="matrix(1,0,0,-1,-0,7.99)" fill="rgb(255,255,255)" stroke="rgb(0,0,0)" stroke-width="0.0010cm" stroke-linecap="round" stroke-linejoin="round" shaper:cutDepth="0.0056" /><path d="M11.6665,-5.0733333 L11.6665,-5.4783333 8.3335,-5.4783333 8.3335,-5.0733333 11.6665,-5.0733333z" transform="matrix(1,0,0,-1,-0,7.99)" fill="rgb(255,255,255)" stroke="rgb(0,0,0)" stroke-width="0.0010cm" stroke-linecap="round" stroke-linejoin="round" shaper:cutDepth="0.0056" /></svg>