<?xml version="1.0" encoding="utf-8"?>
<!-- Generator: Fusion 360, Shaper Origin Export Add-In, Version 1.6.3  -->
<svg xmlns="http://www.w3.org/2000/svg" xmlns:xlink="http://www.w3.org/1999/xlink" xmlns:shaper="http://www.shapertools.com/namespaces/shaper" shaper:fusionaddin="version:1.6.3" width="20cm" height="6.4cm" version="1.1" x="0cm" y="0cm" viewBox="0 0 20 6.4" enable-background="new 0 0 20 6.4" xml:space="preserve"><path d="M0.395,4.14 L0.395,1.74 0,1.74 0,0 20,0 20,1.74 19.605,1.74 19.605,4.14 20,4.14 20,5.84 16,5.84 16,6.4 12,6.4 12,5.84 8,5.84 8,6.4 4,6.4 4,5.84 0,5.84 -0,4.14 0.395,4.14z" transform="matrix(1,0,0,-1,0,6.4)" fill="rgb(0,0,0)" shaper:cutDepth="0.0056" stroke-linecap="round" stroke-linejoin="round" /><path d="M6.535,1.74 L6.535,4.14 6.93,4.14 6.93,1.74 6.535,1.74z" transform="matrix(1,0,0,-1,0,6.4)" fill="rgb(255,255,255)" stroke="rgb(0,0,0)" stroke-width="0.0010cm" stroke-linecap="round" stroke-linejoin="round" shaper:cutDepth="0.0056" /><path d="M13.07,1.74 L13.07,4.14 13.465,4.14 13.465,1.74 13.07,1.74z" transform="matrix(1,0,0,-1,0,6.4)" fill="rgb(255,255,255)" stroke="rgb(0,0,0)" stroke-width="0.0010cm" stroke-linecap="round" stroke-linejoin="round" shaper:cutDepth="0.0056" /></svg>