<?xml version="1.0" encoding="utf-8"?>
<!-- Generator: Fusion 360, Shaper Origin Export Add-In, Version 1.6.3  -->
<svg xmlns="http://www.w3.org/2000/svg" xmlns:xlink="http://www.w3.org/1999/xlink" xmlns:shaper="http://www.shapertools.com/namespaces/shaper" shaper:fusionaddin="version:1.6.3" width="20cm" height="6.4cm" version="1.1" x="0cm" y="0cm" viewBox="0 0 20 6.4" enable-background="new 0 0 20 6.4" xml:space="preserve"><path d="M0,0 L5.062005,0 A2,2 270 0,1 6.3773078,0.4933552 L6.3773078,0.4933552 6.4136381,0.5239357 6.4521392,0.5541404 6.4927835,0.5839477 6.5355419,0.613336 6.5803836,0.6422844 6.6272765,0.6707721 6.6761871,0.6987787 6.72708,0.726284 6.779919,0.7532684 6.834666,0.7797124 6.8912819,0.8055972 6.9497259,0.8309041 7.0099563,0.8556149 7.0719297,0.8797121 7.1356017,0.9031782 7.2009266,0.9259965 7.2678577,0.9481506 7.3363468,0.9696245 7.4063449,0.990403 7.4778017,1.010471 7.550666,1.0298142 7.6248856,1.0484188 7.7004071,1.0662713 7.7771764,1.0833589 7.8551385,1.0996695 7.9342374,1.1151913 8.0144163,1.1299131 8.0956179,1.1438245 8.1777837,1.1569154 8.260855,1.1691764 8.3447721,1.1805988 8.4294747,1.1911743 8.5149023,1.2008955 8.6009934,1.2097552 8.6876863,1.2177471 8.7749188,1.2248656 8.8626284,1.2311054 8.9507522,1.2364622 9.0392269,1.2409321 9.1279891,1.2445119 9.2169751,1.2471989 9.306121,1.2489914 9.395363,1.2498879 9.484637,1.2498879 9.573879,1.2489914 9.6630249,1.2471989 9.7520109,1.2445119 9.8407731,1.2409321 9.9292478,1.2364622 10.0173716,1.2311054 10.1050812,1.2248656 10.1923137,1.2177471 10.2790066,1.2097552 10.3650977,1.2008955 10.4505253,1.1911743 10.5352279,1.1805988 10.619145,1.1691764 10.7022163,1.1569154 10.7843821,1.1438245 10.8655837,1.1299131 10.9457626,1.1151913 11.0248615,1.0996695 11.1028236,1.0833589 11.1795929,1.0662713 11.2551144,1.0484188 11.329334,1.0298142 11.4021983,1.010471 11.4736551,0.990403 11.5436532,0.9696245 11.6121423,0.9481506 11.6790734,0.9259965 11.7443983,0.9031782 11.8080703,0.8797121 11.8700437,0.8556149 11.9302741,0.8309041 11.9887181,0.8055972 12.045334,0.7797124 12.100081,0.7532684 12.15292,0.726284 12.2038129,0.6987787 12.2527235,0.6707721 12.2996164,0.6422844 12.3444581,0.613336 12.3872165,0.5839477 12.4278608,0.5541404 12.4663619,0.5239357 12.5026922,0.4933552 A2,2 228.8789999 0,1 13.817995,-0 L18.88,0 18.88,1.74 19.44,1.74 19.44,4.14 18.88,4.14 18.88,5.84 16.94,5.84 16.94,6.4 13.6066667,6.4 13.6066667,5.84 11.1066667,5.84 11.1066667,6.4 7.7733333,6.4 7.7733333,5.84 5.2733333,5.84 5.2733333,6.4 1.94,6.4 1.94,5.84 0,5.84 0,4.14 -0.56,4.14 -0.56,1.74 0,1.74 0,0z" transform="matrix(1,0,0,-1,0.56,6.4)" fill="rgb(0,0,0)" shaper:cutDepth="0.0039" stroke-linecap="round" stroke-linejoin="round" /></svg>