<?xml version="1.0" encoding="UTF-8" standalone="no"?>
<svg
   xmlns:dc="http://purl.org/dc/elements/1.1/"
   xmlns:cc="http://creativecommons.org/ns#"
   xmlns:rdf="http://www.w3.org/1999/02/22-rdf-syntax-ns#"
   xmlns:svg="http://www.w3.org/2000/svg"
   xmlns="http://www.w3.org/2000/svg"
   xmlns:sodipodi="http://sodipodi.sourceforge.net/DTD/sodipodi-0.dtd"
   xmlns:inkscape="http://www.inkscape.org/namespaces/inkscape"
   width="210mm"
   height="297mm"
   viewBox="0 0 210 297"
   version="1.1"
   id="svg872"
   inkscape:version="1.0.2 (e86c8708, 2021-01-15)"
   sodipodi:docname="GardenMarkers.svg">
  <defs
     id="defs866" />
  <sodipodi:namedview
     id="base"
     pagecolor="#ffffff"
     bordercolor="#666666"
     borderopacity="1.0"
     inkscape:pageopacity="0.0"
     inkscape:pageshadow="2"
     inkscape:zoom="1.4"
     inkscape:cx="242.95976"
     inkscape:cy="56.766029"
     inkscape:document-units="mm"
     inkscape:current-layer="layer1"
     inkscape:document-rotation="0"
     showgrid="false"
     inkscape:window-width="1440"
     inkscape:window-height="765"
     inkscape:window-x="0"
     inkscape:window-y="25"
     inkscape:window-maximized="0" />
  <metadata
     id="metadata869">
    <rdf:RDF>
      <cc:Work
         rdf:about="">
        <dc:format>image/svg+xml</dc:format>
        <dc:type
           rdf:resource="http://purl.org/dc/dcmitype/StillImage" />
        <dc:title></dc:title>
      </cc:Work>
    </rdf:RDF>
  </metadata>
  <g
     inkscape:label="Layer 1"
     inkscape:groupmode="layer"
     id="layer1"
     style="display:inline">
    <text
       xml:space="preserve"
       style="font-style:normal;font-variant:normal;font-weight:normal;font-stretch:normal;font-size:10.5833px;line-height:1.25;font-family:'Arial Black';-inkscape-font-specification:'Arial Black, Normal';font-variant-ligatures:normal;font-variant-caps:normal;font-variant-numeric:normal;font-variant-east-asian:normal;display:inline;fill:#000000;fill-opacity:1;stroke:none;stroke-width:0.264583"
       x="3.2851913"
       y="12.704931"
       id="text1097-5"><tspan
         sodipodi:role="line"
         id="tspan1095-8"
         x="3.2851913"
         y="12.704931"
         style="font-style:normal;font-variant:normal;font-weight:normal;font-stretch:normal;font-size:10.5833px;font-family:'Arial Black';-inkscape-font-specification:'Arial Black, Normal';font-variant-ligatures:normal;font-variant-caps:normal;font-variant-numeric:normal;font-variant-east-asian:normal;stroke-width:0.264583" /></text>
    <g
       aria-label="OREGANO"
       id="text1454"
       style="font-style:normal;font-variant:normal;font-weight:bold;font-stretch:normal;font-size:14.1111px;line-height:1.25;font-family:sans-serif;-inkscape-font-specification:'sans-serif, Bold';font-variant-ligatures:normal;font-variant-caps:normal;font-variant-numeric:normal;font-variant-east-asian:normal;fill:#000000;fill-opacity:1;stroke:none;stroke-width:0.264583"
       transform="translate(4.0036705,-51.583019)" />
    <g
       aria-label="BASIL"
       id="text1574"
       style="font-style:normal;font-variant:normal;font-weight:bold;font-stretch:normal;font-size:10.5833px;line-height:1.25;font-family:sans-serif;-inkscape-font-specification:'sans-serif, Bold';font-variant-ligatures:normal;font-variant-caps:normal;font-variant-numeric:normal;font-variant-east-asian:normal;fill:#000000;fill-opacity:1;stroke:none;stroke-width:0.264583" />
    <g
       aria-label="OREGANO"
       id="text1580"
       style="font-style:normal;font-variant:normal;font-weight:bold;font-stretch:normal;font-size:10.5833px;line-height:1.25;font-family:sans-serif;-inkscape-font-specification:'sans-serif, Bold';font-variant-ligatures:normal;font-variant-caps:normal;font-variant-numeric:normal;font-variant-east-asian:normal;fill:#000000;fill-opacity:1;stroke:none;stroke-width:0.264583" />
    <g
       id="g939"
       transform="translate(1.0523945e-7,-179.53869)">
      <g
         aria-label="CILANTRO"
         id="text937"
         style="font-style:normal;font-variant:normal;font-weight:bold;font-stretch:normal;font-size:10.5833px;line-height:1.25;font-family:sans-serif;-inkscape-font-specification:'sans-serif, Bold';font-variant-ligatures:normal;font-variant-caps:normal;font-variant-numeric:normal;font-variant-east-asian:normal;fill:#000000;fill-opacity:1;stroke:none;stroke-width:0.264583" />
    </g>
    <g
       id="g969"
       transform="translate(1.0523945e-7,-97.018838)">
      <g
         aria-label="DILL"
         id="text967"
         style="font-style:normal;font-variant:normal;font-weight:bold;font-stretch:normal;font-size:10.5833px;line-height:1.25;font-family:sans-serif;-inkscape-font-specification:'sans-serif, Bold';font-variant-ligatures:normal;font-variant-caps:normal;font-variant-numeric:normal;font-variant-east-asian:normal;fill:#000000;fill-opacity:1;stroke:none;stroke-width:0.264583"
         transform="translate(0.09999999)" />
    </g>
    <g
       id="g1019"
       transform="translate(1.0523945e-7,-78.241071)">
      <g
         aria-label="MINT"
         id="text1017"
         style="font-style:normal;font-variant:normal;font-weight:bold;font-stretch:normal;font-size:10.5833px;line-height:1.25;font-family:sans-serif;-inkscape-font-specification:'sans-serif, Bold';font-variant-ligatures:normal;font-variant-caps:normal;font-variant-numeric:normal;font-variant-east-asian:normal;fill:#000000;fill-opacity:1;stroke:none;stroke-width:0.264583"
         transform="translate(0,-0.199719)" />
    </g>
    <g
       aria-label="PARSLEY"
       id="text1045"
       style="font-style:normal;font-variant:normal;font-weight:bold;font-stretch:normal;font-size:10.5833px;line-height:1.25;font-family:sans-serif;-inkscape-font-specification:'sans-serif, Bold';font-variant-ligatures:normal;font-variant-caps:normal;font-variant-numeric:normal;font-variant-east-asian:normal;white-space:pre;inline-size:53.7872;fill:#000000;fill-opacity:1;stroke:none;stroke-width:0.264583"
       transform="translate(0,0.02998)" />
    <g
       aria-label="THYME "
       transform="translate(0.7697679,40.06045)"
       id="text1167"
       style="font-style:normal;font-variant:normal;font-weight:bold;font-stretch:normal;font-size:10.5833px;line-height:1.25;font-family:sans-serif;-inkscape-font-specification:'sans-serif, Bold';font-variant-ligatures:normal;font-variant-caps:normal;font-variant-numeric:normal;font-variant-east-asian:normal;white-space:pre;inline-size:53.7872;fill:#000000;fill-opacity:1;stroke:none;stroke-width:0.264583" />
    <g
       aria-label="PARSLEY"
       id="text982"
       style="font-style:normal;font-variant:normal;font-weight:normal;font-stretch:normal;font-size:10.5833px;line-height:1.25;font-family:'Arial Black';-inkscape-font-specification:'Arial Black, Normal';font-variant-ligatures:normal;font-variant-caps:normal;font-variant-numeric:normal;font-variant-east-asian:normal;fill:#000000;fill-opacity:1;stroke:none;stroke-width:0.264583" />
    <g
       aria-label="CHIVES"
       id="text1037"
       style="font-style:normal;font-variant:normal;font-weight:normal;font-stretch:normal;font-size:10.5833px;line-height:1.25;font-family:'Arial Black';-inkscape-font-specification:'Arial Black, Normal';font-variant-ligatures:normal;font-variant-caps:normal;font-variant-numeric:normal;font-variant-east-asian:normal;fill:#000000;fill-opacity:1;stroke:none;stroke-width:0.264583" />
    <g
       aria-label="CILANTRO"
       id="text1073"
       style="font-style:normal;font-variant:normal;font-weight:normal;font-stretch:normal;font-size:10.5833px;line-height:1.25;font-family:'Arial Black';-inkscape-font-specification:'Arial Black, Normal';font-variant-ligatures:normal;font-variant-caps:normal;font-variant-numeric:normal;font-variant-east-asian:normal;fill:#000000;fill-opacity:1;stroke:none;stroke-width:0.264583" />
    <g
       aria-label="DILL"
       id="text1112"
       style="font-style:normal;font-variant:normal;font-weight:normal;font-stretch:normal;font-size:10.5833px;line-height:1.25;font-family:'Arial Black';-inkscape-font-specification:'Arial Black, Normal';font-variant-ligatures:normal;font-variant-caps:normal;font-variant-numeric:normal;font-variant-east-asian:normal;fill:#000000;fill-opacity:1;stroke:none;stroke-width:0.264583" />
    <g
       aria-label="LEMONGRASS"
       id="text1128"
       style="font-style:normal;font-variant:normal;font-weight:normal;font-stretch:normal;font-size:10.5833px;line-height:1.25;font-family:'Arial Black';-inkscape-font-specification:'Arial Black, Normal';font-variant-ligatures:normal;font-variant-caps:normal;font-variant-numeric:normal;font-variant-east-asian:normal;fill:#000000;fill-opacity:1;stroke:none;stroke-width:0.264583" />
    <g
       aria-label="MINT"
       id="text1157"
       style="font-style:normal;font-variant:normal;font-weight:normal;font-stretch:normal;font-size:10.5833px;line-height:1.25;font-family:'Arial Black';-inkscape-font-specification:'Arial Black, Normal';font-variant-ligatures:normal;font-variant-caps:normal;font-variant-numeric:normal;font-variant-east-asian:normal;fill:#000000;fill-opacity:1;stroke:none;stroke-width:0.264583" />
    <g
       aria-label="OREGANO"
       id="text1174"
       style="font-style:normal;font-variant:normal;font-weight:normal;font-stretch:normal;font-size:10.5833px;line-height:1.25;font-family:'Arial Black';-inkscape-font-specification:'Arial Black, Normal';font-variant-ligatures:normal;font-variant-caps:normal;font-variant-numeric:normal;font-variant-east-asian:normal;fill:#000000;fill-opacity:1;stroke:none;stroke-width:0.264583" />
    <g
       aria-label="SAGE"
       id="text1196"
       style="font-style:normal;font-variant:normal;font-weight:normal;font-stretch:normal;font-size:10.5833px;line-height:1.25;font-family:'Arial Black';-inkscape-font-specification:'Arial Black, Normal';font-variant-ligatures:normal;font-variant-caps:normal;font-variant-numeric:normal;font-variant-east-asian:normal;fill:#000000;fill-opacity:1;stroke:none;stroke-width:0.264583" />
    <g
       aria-label="THYME"
       id="text1223"
       style="font-style:normal;font-variant:normal;font-weight:normal;font-stretch:normal;font-size:10.5833px;line-height:1.25;font-family:'Arial Black';-inkscape-font-specification:'Arial Black, Normal';font-variant-ligatures:normal;font-variant-caps:normal;font-variant-numeric:normal;font-variant-east-asian:normal;fill:#000000;fill-opacity:1;stroke:none;stroke-width:0.264583" />
    <g
       aria-label="ROSEMARY"
       id="text1284"
       style="font-style:normal;font-variant:normal;font-weight:normal;font-stretch:normal;font-size:10.5833px;line-height:1.25;font-family:'Arial Black';-inkscape-font-specification:'Arial Black, Normal';font-variant-ligatures:normal;font-variant-caps:normal;font-variant-numeric:normal;font-variant-east-asian:normal;display:inline;fill:#000000;fill-opacity:1;stroke:none;stroke-width:0.264583" />
    <g
       aria-label="CILANTRO"
       id="text890-5"
       style="font-style:normal;font-variant:normal;font-weight:normal;font-stretch:normal;font-size:10.5833px;line-height:1.25;font-family:'Arial Black';-inkscape-font-specification:'Arial Black, Normal';font-variant-ligatures:normal;font-variant-caps:normal;font-variant-numeric:normal;font-variant-east-asian:normal;display:inline;fill:#000000;fill-opacity:1;stroke:none;stroke-width:0.264583" />
    <g
       aria-label="DILL"
       id="text890-0"
       style="font-style:normal;font-variant:normal;font-weight:normal;font-stretch:normal;font-size:10.5833px;line-height:1.25;font-family:'Arial Black';-inkscape-font-specification:'Arial Black, Normal';font-variant-ligatures:normal;font-variant-caps:normal;font-variant-numeric:normal;font-variant-east-asian:normal;display:inline;fill:#000000;fill-opacity:1;stroke:none;stroke-width:0.264583" />
    <path
       id="path1095-9"
       style="display:inline;fill:none;stroke:#000000;stroke-width:0.37838;stroke-linecap:butt;stroke-linejoin:miter;stroke-miterlimit:4;stroke-dasharray:none;stroke-opacity:1"
       d="M 28.783203 18.898438 C 24.173843 18.898437 20.606112 20.174487 18.080078 22.726562 C 15.567065 25.265617 14.310547 28.904963 14.310547 33.644531 C 14.310547 37.199207 15.026697 40.115892 16.458984 42.394531 C 17.891272 44.673168 19.590501 46.268232 21.556641 47.179688 C 21.756327 47.270335 21.966516 47.352092 22.177734 47.433594 L 15.306641 47.433594 L 15.306641 75.619141 L 468.72266 75.619141 L 582.30078 47.417969 L 468.72266 19.304688 L 240.45703 19.306641 L 240.45703 26.658203 C 239.82385 25.164647 238.96369 23.852785 237.8457 22.746094 C 235.26759 20.180998 231.59569 18.898438 226.83008 18.898438 C 222.18165 18.898437 218.55533 20.200529 215.95117 22.804688 C 213.34701 25.408846 212.04492 29.048192 212.04492 33.722656 C 212.04492 37.069001 212.70248 39.855476 214.01758 42.082031 C 215.33268 44.308586 217.04493 45.936202 219.1543 46.964844 C 219.50921 47.136855 219.88563 47.288393 220.27148 47.431641 L 210.04297 47.431641 L 206.06836 39.71875 C 205.86003 39.302085 205.44336 38.709633 204.81836 37.941406 C 204.20638 37.173178 203.73763 36.671874 203.41211 36.4375 C 202.93034 36.085939 202.16211 35.734374 201.10742 35.382812 C 202.42252 35.083334 203.45768 34.705728 204.21289 34.25 C 205.39778 33.533856 206.32878 32.602861 207.00586 31.457031 C 207.68294 30.298181 208.02148 28.924474 208.02148 27.335938 C 208.02148 25.513027 207.57877 23.970048 206.69336 22.707031 C 205.80795 21.430993 204.64257 20.558592 203.19727 20.089844 C 201.75196 19.621095 199.6621 19.386719 196.92773 19.386719 L 182.18164 19.386719 L 182.18164 47.431641 L 169.01758 47.431641 L 169.01758 26.457031 L 178.04102 26.457031 L 178.04102 19.386719 L 151.14648 19.386719 L 151.14648 26.457031 L 160.16992 26.457031 L 160.16992 47.431641 L 147.24023 47.431641 L 147.24023 19.386719 L 138.90039 19.386719 L 138.90039 35.226562 L 128.11914 19.386719 L 119.85742 19.386719 L 119.85742 47.433594 L 116.76562 47.433594 L 106.22461 19.386719 L 96.576172 19.386719 L 86.035156 47.433594 L 84.642578 47.433594 L 84.642578 40.96875 L 70.833984 40.96875 L 70.833984 19.386719 L 61.986328 19.386719 L 61.986328 47.433594 L 55.658203 47.433594 L 55.658203 19.386719 L 46.791016 19.386719 L 46.791016 47.433594 L 35.46875 47.433594 C 35.485299 47.42628 35.505026 47.421449 35.521484 47.414062 C 37.188146 46.671877 38.581384 45.571609 39.701172 44.113281 C 40.82096 42.654953 41.641278 40.838536 42.162109 38.664062 L 34.408203 36.320312 C 34.017579 38.130203 33.386065 39.510419 32.513672 40.460938 C 31.6543 41.411453 30.37825 41.886719 28.685547 41.886719 C 26.940761 41.886719 25.586586 41.300776 24.623047 40.128906 C 23.659508 38.944014 23.177734 36.763011 23.177734 33.585938 C 23.177734 31.020841 23.581383 29.139319 24.388672 27.941406 C 25.456377 26.326828 26.992845 25.519531 28.998047 25.519531 C 29.883461 25.519531 30.684247 25.701824 31.400391 26.066406 C 32.116534 26.430988 32.722007 26.951825 33.216797 27.628906 C 33.516275 28.032551 33.802735 28.670576 34.076172 29.542969 L 41.888672 27.804688 C 40.886072 24.783864 39.349603 22.544266 37.279297 21.085938 C 35.222012 19.627609 32.389963 18.898438 28.783203 18.898438 z M 191.06836 25.167969 L 194.95508 25.167969 C 196.56965 25.167969 197.66992 25.415366 198.25586 25.910156 C 198.84179 26.404947 199.13477 27.114586 199.13477 28.039062 C 199.13477 28.664061 198.94596 29.21745 198.56836 29.699219 C 198.20378 30.180987 197.72851 30.480468 197.14258 30.597656 C 195.98373 30.858072 195.20247 30.988281 194.79883 30.988281 L 191.06836 30.988281 L 191.06836 25.167969 z M 226.81055 25.597656 C 228.67252 25.597656 230.14388 26.22266 231.22461 27.472656 C 232.31836 28.709631 232.86523 30.67579 232.86523 33.371094 C 232.86523 36.574208 232.3444 38.794274 231.30273 40.03125 C 230.26107 41.268224 228.78971 41.886719 226.88867 41.886719 C 225.03972 41.886719 223.57487 41.255202 222.49414 39.992188 C 221.42643 38.72917 220.89258 36.652335 220.89258 33.761719 C 220.89258 30.845061 221.43295 28.755204 222.51367 27.492188 C 223.5944 26.229171 225.0267 25.597656 226.81055 25.597656 z M 101.30273 26.808594 L 104.4668 37.101562 L 98.158203 37.101562 L 101.30273 26.808594 z M 128.17773 32.296875 L 138.5 47.431641 L 128.17773 47.431641 L 128.17773 32.296875 z M 191.06836 36.398438 L 191.84961 36.398438 C 192.6569 36.398438 193.37956 36.619793 194.01758 37.0625 C 194.48633 37.401041 195.02018 38.136723 195.61914 39.269531 L 200.0293 47.431641 L 191.06836 47.431641 L 191.06836 36.398438 z M 240.45703 40.779297 L 240.45703 47.431641 L 233.62305 47.431641 C 234.15048 47.225905 234.65618 46.995474 235.13086 46.730469 C 237.26627 45.532555 238.89388 43.865879 240.01367 41.730469 C 240.17389 41.42661 240.31947 41.107118 240.45703 40.779297 z M 96.244141 43.292969 L 106.32227 43.292969 L 107.55469 47.433594 L 95.029297 47.433594 L 96.244141 43.292969 z "
       transform="scale(0.26458333)" />
    <g
       aria-label="CILANTRO"
       id="text890-1"
       style="font-style:normal;font-variant:normal;font-weight:normal;font-stretch:normal;font-size:10.5833px;line-height:1.25;font-family:'Arial Black';-inkscape-font-specification:'Arial Black, Normal';font-variant-ligatures:normal;font-variant-caps:normal;font-variant-numeric:normal;font-variant-east-asian:normal;display:inline;fill:#000000;fill-opacity:1;stroke:none;stroke-width:0.264583" />
    <path
       id="path1095-6"
       style="display:inline;fill:none;stroke:#000000;stroke-width:0.37838;stroke-linecap:butt;stroke-linejoin:miter;stroke-miterlimit:4;stroke-dasharray:none;stroke-opacity:1"
       d="M 468.72266 94.894531 L 114.45703 94.896484 L 114.45703 123.02344 L 111.36133 123.02344 L 111.36133 116.55859 L 97.552734 116.55859 L 97.552734 94.976562 L 88.705078 94.976562 L 88.705078 123.02344 L 84.642578 123.02344 L 84.642578 116.55859 L 70.833984 116.55859 L 70.833984 94.976562 L 61.986328 94.976562 L 61.986328 123.02344 L 55.658203 123.02344 L 55.658203 94.976562 L 46.791016 94.976562 L 46.791016 123.02344 L 33.070312 123.02344 C 33.339773 122.95971 33.603973 122.90246 33.880859 122.82812 C 35.300126 122.45052 36.628259 121.69531 37.865234 120.5625 C 39.102208 119.41667 40.065755 118.0039 40.755859 116.32422 C 41.45898 114.63152 41.810547 112.2552 41.810547 109.19531 C 41.810547 107.24219 41.576169 105.39322 41.107422 103.64844 C 40.638672 101.90365 39.88346 100.3737 38.841797 99.058594 C 37.800134 97.743495 36.47851 96.734373 34.876953 96.03125 C 33.288416 95.328127 31.198559 94.976563 28.607422 94.976562 L 15.462891 94.976562 L 15.462891 123.02344 L 15.306641 123.02344 L 15.306641 151.21094 L 468.72266 151.21094 L 582.30078 123.00977 L 468.72266 94.894531 z M 24.310547 101.46094 L 26.517578 101.46094 C 28.809237 101.46094 30.449873 102.02084 31.439453 103.14062 C 32.429033 104.26041 32.923828 106.33725 32.923828 109.37109 C 32.923828 111.66275 32.702473 113.32292 32.259766 114.35156 C 31.817059 115.36718 31.205076 116.08333 30.423828 116.5 C 29.642581 116.90364 28.327468 117.10547 26.478516 117.10547 L 24.310547 117.10547 L 24.310547 101.46094 z "
       transform="scale(0.26458333)" />
    <g
       aria-label="DILL"
       id="text890-2"
       style="font-style:normal;font-variant:normal;font-weight:normal;font-stretch:normal;font-size:10.5833px;line-height:1.25;font-family:'Arial Black';-inkscape-font-specification:'Arial Black, Normal';font-variant-ligatures:normal;font-variant-caps:normal;font-variant-numeric:normal;font-variant-east-asian:normal;display:inline;fill:#000000;fill-opacity:1;stroke:none;stroke-width:0.264583" />
  </g>
  <g
     inkscape:groupmode="layer"
     id="layer2"
     inkscape:label="Template"
     style="display:none">
    <path
       id="path1095"
       style="display:inline;fill:none;stroke:#000000;stroke-width:0.100113;stroke-linecap:butt;stroke-linejoin:miter;stroke-miterlimit:4;stroke-dasharray:none;stroke-opacity:1"
       d="m 57.8,5.1079977 v 7.4418303 l -53.7499435,3.4e-4 v 7.45751 H 124.01638 l 30.05088,-7.4616 -30.05088,-7.4383203 z"
       sodipodi:nodetypes="cccccccc" />
    <text
       xml:space="preserve"
       style="font-style:normal;font-variant:normal;font-weight:normal;font-stretch:normal;font-size:10.5833px;line-height:1.25;font-family:'Arial Black';-inkscape-font-specification:'Arial Black, Normal';font-variant-ligatures:normal;font-variant-caps:normal;font-variant-numeric:normal;font-variant-east-asian:normal;display:inline;fill:#000000;fill-opacity:1;stroke:none;stroke-width:0.264583"
       x="3.2851913"
       y="12.704931"
       id="text890"><tspan
         sodipodi:role="line"
         id="tspan888"
         x="3.2851913"
         y="12.704931"
         style="font-style:normal;font-variant:normal;font-weight:normal;font-stretch:normal;font-size:10.5833px;font-family:'Arial Black';-inkscape-font-specification:'Arial Black, Normal';font-variant-ligatures:normal;font-variant-caps:normal;font-variant-numeric:normal;font-variant-east-asian:normal;stroke-width:0.264583">PARSLEY</tspan></text>
  </g>
</svg>
