<?xml version="1.0" encoding="UTF-8" standalone="no"?>
<!-- Created with Inkscape (http://www.inkscape.org/) -->

<svg
   width="210mm"
   height="297mm"
   viewBox="0 0 210 297"
   version="1.1"
   id="svg5"
   inkscape:version="1.1 (c4e8f9e, 2021-05-24)"
   sodipodi:docname="MusePower.svg"
   xmlns:inkscape="http://www.inkscape.org/namespaces/inkscape"
   xmlns:sodipodi="http://sodipodi.sourceforge.net/DTD/sodipodi-0.dtd"
   xmlns="http://www.w3.org/2000/svg"
   xmlns:svg="http://www.w3.org/2000/svg">
  <sodipodi:namedview
     id="namedview7"
     pagecolor="#ffffff"
     bordercolor="#666666"
     borderopacity="1.0"
     inkscape:pageshadow="2"
     inkscape:pageopacity="0.0"
     inkscape:pagecheckerboard="0"
     inkscape:document-units="mm"
     showgrid="false"
     inkscape:zoom="1.6277344"
     inkscape:cx="379.976"
     inkscape:cy="150.82313"
     inkscape:window-width="1888"
     inkscape:window-height="1027"
     inkscape:window-x="5"
     inkscape:window-y="25"
     inkscape:window-maximized="0"
     inkscape:current-layer="layer1" />
  <defs
     id="defs2" />
  <g
     inkscape:label="Layer 1"
     inkscape:groupmode="layer"
     id="layer1">
    <rect
       style="opacity:1;fill:none;stroke:#000000;stroke-width:0.0686295;stroke-miterlimit:4;stroke-dasharray:none"
       id="rect846"
       width="9.9313707"
       height="9.9313707"
       x="43.375412"
       y="37.536846" />
    <g
       aria-label="              Speed
9        13        16       20       24"
       transform="matrix(1.0316732,0,0,0.9692992,5.6891448,-10.890649)"
       id="text2898"
       style="font-size:4.54624px;line-height:1.25;stroke-width:0.113656">
      <g
         aria-label="Speed"
         transform="scale(0.9692992,1.0316732)"
         id="text40222"
         style="font-size:5.29167px;-inkscape-font-specification:'sans-serif, Normal';text-align:center;text-anchor:middle;stroke-width:0.0152749" />
      <g
         transform="scale(0.9692992,1.0316732)"
         id="text44228"
         style="font-size:5.29167px;-inkscape-font-specification:'sans-serif, Normal';stroke-width:0.0300715" />
    </g>
    <rect
       style="opacity:1;fill:none;stroke:#000000;stroke-width:0.0686295;stroke-miterlimit:4;stroke-dasharray:none"
       id="rect38166"
       width="9.9313707"
       height="9.9313707"
       x="58.598454"
       y="37.536846" />
    <rect
       style="opacity:1;fill:none;stroke:#000000;stroke-width:0.0686295;stroke-miterlimit:4;stroke-dasharray:none"
       id="rect38168"
       width="9.9313707"
       height="9.9313707"
       x="73.821495"
       y="37.536846" />
    <rect
       style="opacity:1;fill:none;stroke:#000000;stroke-width:0.0686295;stroke-miterlimit:4;stroke-dasharray:none"
       id="rect38170"
       width="9.9313707"
       height="9.9313707"
       x="89.04454"
       y="37.536846" />
    <rect
       style="opacity:1;fill:none;stroke:#000000;stroke-width:0.0686295;stroke-miterlimit:4;stroke-dasharray:none"
       id="rect38172"
       width="9.9313707"
       height="9.9313707"
       x="104.26758"
       y="37.536846" />
    <rect
       style="opacity:1;fill:none;stroke:#000000;stroke-width:0.0686295;stroke-miterlimit:4;stroke-dasharray:none"
       id="rect122068"
       width="9.9313707"
       height="9.9313707"
       x="118.96146"
       y="37.536846" />
    <rect
       style="opacity:1;fill:none;stroke:#000000;stroke-width:0.0686295;stroke-miterlimit:4;stroke-dasharray:none"
       id="rect124503"
       width="9.9313707"
       height="9.9313707"
       x="43.375412"
       y="52.759888" />
    <rect
       style="opacity:1;fill:none;stroke:#000000;stroke-width:0.0686295;stroke-miterlimit:4;stroke-dasharray:none"
       id="rect124505"
       width="9.9313707"
       height="9.9313707"
       x="58.598454"
       y="52.759888" />
    <rect
       style="opacity:1;fill:none;stroke:#000000;stroke-width:0.0686295;stroke-miterlimit:4;stroke-dasharray:none"
       id="rect124507"
       width="9.9313707"
       height="9.9313707"
       x="73.821495"
       y="52.759888" />
    <rect
       style="opacity:1;fill:none;stroke:#000000;stroke-width:0.0686295;stroke-miterlimit:4;stroke-dasharray:none"
       id="rect124509"
       width="9.9313707"
       height="9.9313707"
       x="89.04454"
       y="52.759888" />
    <rect
       style="opacity:1;fill:none;stroke:#000000;stroke-width:0.0686295;stroke-miterlimit:4;stroke-dasharray:none"
       id="rect124511"
       width="9.9313707"
       height="9.9313707"
       x="104.26758"
       y="52.759888" />
    <rect
       style="opacity:1;fill:none;stroke:#000000;stroke-width:0.0686295;stroke-miterlimit:4;stroke-dasharray:none"
       id="rect124513"
       width="9.9313707"
       height="9.9313707"
       x="118.96146"
       y="52.759888" />
    <rect
       style="opacity:1;fill:none;stroke:#000000;stroke-width:0.0686295;stroke-miterlimit:4;stroke-dasharray:none"
       id="rect124515"
       width="9.9313707"
       height="9.9313707"
       x="43.375412"
       y="67.982925" />
    <rect
       style="opacity:1;fill:none;stroke:#000000;stroke-width:0.0686295;stroke-miterlimit:4;stroke-dasharray:none"
       id="rect124517"
       width="9.9313707"
       height="9.9313707"
       x="58.598454"
       y="67.982925" />
    <rect
       style="opacity:1;fill:none;stroke:#000000;stroke-width:0.0686295;stroke-miterlimit:4;stroke-dasharray:none"
       id="rect124519"
       width="9.9313707"
       height="9.9313707"
       x="73.821495"
       y="67.982925" />
    <rect
       style="opacity:1;fill:none;stroke:#000000;stroke-width:0.0686295;stroke-miterlimit:4;stroke-dasharray:none"
       id="rect124521"
       width="9.9313707"
       height="9.9313707"
       x="89.04454"
       y="67.982925" />
    <rect
       style="opacity:1;fill:none;stroke:#000000;stroke-width:0.0686295;stroke-miterlimit:4;stroke-dasharray:none"
       id="rect124523"
       width="9.9313707"
       height="9.9313707"
       x="104.26758"
       y="67.982925" />
    <rect
       style="opacity:1;fill:none;stroke:#000000;stroke-width:0.0686295;stroke-miterlimit:4;stroke-dasharray:none"
       id="rect124525"
       width="9.9313707"
       height="9.9313707"
       x="118.96146"
       y="67.982925" />
    <g
       aria-label="              Speed
9        13        16       20       24"
       transform="scale(1.0316732,0.9692992)"
       id="g124644"
       style="font-size:4.54624px;line-height:1.25;stroke-width:0.113656">
      <g
         aria-label="16     18     20    22     24    26"
         transform="scale(0.9692992,1.0316732)"
         id="text124642"
         style="font-size:5.29167px;-inkscape-font-specification:'sans-serif, Normal';stroke-width:0.0300715" />
      <g
         aria-label="Passes
"
         transform="scale(0.9692992,1.0316732)"
         id="text124648"
         style="font-size:5.29167px;-inkscape-font-specification:'sans-serif, Normal';text-align:center;text-anchor:middle;stroke-width:0.0152749" />
      <g
         aria-label="1"
         transform="scale(0.9692992,1.0316732)"
         id="text133144"
         style="font-size:5.29167px;-inkscape-font-specification:'sans-serif, Normal';text-align:center;text-anchor:middle;stroke-width:0.0300715" />
      <g
         aria-label="2"
         transform="scale(0.9692992,1.0316732)"
         id="text135978"
         style="font-size:5.29167px;-inkscape-font-specification:'sans-serif, Normal';text-align:center;text-anchor:middle;stroke-width:0.0300715" />
      <g
         aria-label="3"
         transform="matrix(0.9692992,0,0,1.0316732,-0.15755667,0.50308613)"
         id="text139008"
         style="font-size:5.29167px;-inkscape-font-specification:'sans-serif, Normal';text-align:center;text-anchor:middle;stroke-width:0.0300715">
        <path
           id="path143638"
           d="m 30.456331,72.91902 q 0.124023,0.111105 0.204122,0.279053 0.0801,0.167949 0.0801,0.434083 0,0.26355 -0.0956,0.483175 -0.0956,0.219625 -0.268718,0.382405 -0.193787,0.180868 -0.457337,0.268718 -0.260966,0.08527 -0.573608,0.08527 -0.320394,0 -0.630453,-0.07751 -0.310059,-0.07493 -0.509013,-0.165365 V 74.06883 h 0.03876 q 0.219625,0.144694 0.516765,0.240295 0.297139,0.0956 0.573608,0.0956 0.162781,0 0.346233,-0.05426 0.183451,-0.05426 0.297139,-0.160198 0.118856,-0.113688 0.1757,-0.25063 0.05943,-0.136943 0.05943,-0.346233 0,-0.206706 -0.06718,-0.341064 -0.0646,-0.136943 -0.180868,-0.214458 -0.116272,-0.0801 -0.281637,-0.10852 -0.165364,-0.03101 -0.356567,-0.03101 h -0.232544 v -0.428915 h 0.180867 q 0.392742,0 0.625286,-0.162781 0.235128,-0.165364 0.235128,-0.480591 0,-0.139526 -0.05943,-0.242879 -0.05943,-0.105937 -0.165365,-0.173116 -0.111105,-0.06718 -0.237712,-0.09302 -0.126607,-0.02584 -0.286804,-0.02584 -0.245463,0 -0.521932,0.08785 -0.27647,0.08785 -0.521933,0.248047 h -0.02584 V 71.08709 q 0.183451,-0.09043 0.488343,-0.165365 0.307475,-0.07751 0.594279,-0.07751 0.281637,0 0.496094,0.05168 0.214457,0.05168 0.387573,0.165365 0.186036,0.124023 0.281637,0.299723 0.0956,0.1757 0.0956,0.410828 0,0.320394 -0.227377,0.56069 -0.224792,0.237711 -0.532267,0.299723 v 0.03617 q 0.124023,0.02067 0.28422,0.08785 0.160197,0.06459 0.271302,0.16278 z m 0.353983,-13.426817 h -2.604493 v -0.540019 q 0.271301,-0.232544 0.542602,-0.465088 0.273886,-0.232545 0.509014,-0.462505 0.496094,-0.480591 0.679545,-0.762228 0.183452,-0.28422 0.183452,-0.612366 0,-0.299723 -0.198955,-0.467672 -0.19637,-0.170532 -0.550354,-0.170532 -0.235128,0 -0.509013,0.08268 -0.273886,0.08268 -0.534852,0.253215 h -0.02584 v -0.542603 q 0.183451,-0.09043 0.488343,-0.165365 0.307475,-0.07493 0.594279,-0.07493 0.591695,0 0.927592,0.286804 0.335897,0.28422 0.335897,0.772563 0,0.219625 -0.05684,0.410828 -0.05426,0.188619 -0.16278,0.359151 -0.10077,0.160197 -0.237712,0.315227 -0.134359,0.155029 -0.328146,0.343648 -0.276469,0.271302 -0.571025,0.5271 -0.294556,0.253215 -0.550354,0.470256 h 2.069642 z M 30.288382,44.212784 h -2.082561 v -0.392741 h 0.800985 v -2.578656 h -0.800985 v -0.3514 q 0.162781,0 0.348816,-0.02584 0.186035,-0.02842 0.281637,-0.0801 0.118855,-0.06459 0.186035,-0.16278 0.06976,-0.100769 0.0801,-0.268718 H 29.5029 v 3.467491 h 0.785482 z m 7.349206,-11.127806 q 0,0.395325 -0.328146,0.64854 -0.325562,0.253215 -0.891419,0.253215 -0.320394,0 -0.589112,-0.07493 -0.266133,-0.07751 -0.447001,-0.167949 v -0.545187 h 0.02584 q 0.22996,0.173117 0.511597,0.27647 0.281637,0.100769 0.540019,0.100769 0.320394,0 0.501262,-0.103353 0.180867,-0.103353 0.180867,-0.325562 0,-0.170532 -0.09818,-0.258382 -0.09819,-0.08785 -0.377238,-0.149862 -0.103353,-0.02325 -0.271301,-0.05426 -0.165365,-0.03101 -0.302308,-0.06718 -0.379822,-0.100769 -0.540019,-0.294556 -0.157613,-0.19637 -0.157613,-0.480591 0,-0.178284 0.07235,-0.335897 0.07493,-0.157613 0.224793,-0.281636 0.144694,-0.12144 0.366903,-0.191203 0.224792,-0.07235 0.501261,-0.07235 0.258383,0 0.521933,0.0646 0.266133,0.06201 0.441833,0.152446 v 0.519348 h -0.02584 q -0.186035,-0.136942 -0.452169,-0.22996 -0.266134,-0.0956 -0.521932,-0.0956 -0.266134,0 -0.449585,0.103353 -0.183452,0.10077 -0.183452,0.302308 0,0.178284 0.111104,0.268717 0.108521,0.09043 0.3514,0.147278 0.134359,0.03101 0.299724,0.06201 0.167948,0.03101 0.279053,0.05684 0.338481,0.07751 0.521932,0.266134 0.183452,0.191203 0.183452,0.506429 z M 34.839307,32.524289 H 32.71282 q 0,0.266133 0.0801,0.465088 0.0801,0.19637 0.219625,0.322978 0.134359,0.124023 0.31781,0.186035 0.186035,0.06201 0.408244,0.06201 0.294556,0 0.591696,-0.116272 0.299723,-0.118856 0.42633,-0.232544 h 0.02584 v 0.529683 q -0.245464,0.103353 -0.501262,0.173116 -0.255799,0.06976 -0.537435,0.06976 -0.718303,0 -1.12138,-0.387574 -0.403076,-0.390157 -0.403076,-1.105876 0,-0.707968 0.38499,-1.123963 0.387573,-0.415996 1.018026,-0.415996 0.583944,0 0.89917,0.341065 0.317811,0.341065 0.317811,0.968934 z m -0.47284,-0.372071 q -0.0026,-0.382406 -0.193787,-0.591695 -0.188619,-0.20929 -0.576192,-0.20929 -0.390158,0 -0.622702,0.22996 -0.22996,0.22996 -0.260966,0.571025 z m -2.640667,0.93276 q 0,0.395325 -0.328146,0.64854 -0.325562,0.253215 -0.891419,0.253215 -0.320394,0 -0.589112,-0.07493 -0.266133,-0.07751 -0.447001,-0.167949 v -0.545187 h 0.02584 q 0.22996,0.173117 0.511597,0.27647 0.281637,0.100769 0.540019,0.100769 0.320394,0 0.501262,-0.103353 0.180868,-0.103353 0.180868,-0.325562 0,-0.170532 -0.09819,-0.258382 -0.09818,-0.08785 -0.377238,-0.149862 -0.103353,-0.02325 -0.271301,-0.05426 -0.165365,-0.03101 -0.302308,-0.06718 -0.379822,-0.100769 -0.540019,-0.294556 -0.157613,-0.19637 -0.157613,-0.480591 0,-0.178284 0.07235,-0.335897 0.07493,-0.157613 0.224793,-0.281636 0.144694,-0.12144 0.366903,-0.191203 0.224792,-0.07235 0.501261,-0.07235 0.258383,0 0.521933,0.0646 0.266133,0.06201 0.441833,0.152446 v 0.519348 h -0.02584 q -0.186035,-0.136942 -0.452169,-0.22996 -0.266134,-0.0956 -0.521932,-0.0956 -0.266134,0 -0.449585,0.103353 -0.183452,0.10077 -0.183452,0.302308 0,0.178284 0.111104,0.268717 0.108521,0.09043 0.3514,0.147278 0.134359,0.03101 0.299724,0.06201 0.167948,0.03101 0.279053,0.05684 0.338481,0.07751 0.521932,0.266134 0.183452,0.191203 0.183452,0.506429 z m -2.759523,0 q 0,0.395325 -0.328145,0.64854 -0.325562,0.253215 -0.891419,0.253215 -0.320394,0 -0.589112,-0.07493 -0.266134,-0.07751 -0.447002,-0.167949 v -0.545187 h 0.02584 q 0.22996,0.173117 0.511597,0.27647 0.281636,0.100769 0.540019,0.100769 0.320394,0 0.501261,-0.103353 0.180868,-0.103353 0.180868,-0.325562 0,-0.170532 -0.09818,-0.258382 -0.09819,-0.08785 -0.377238,-0.149862 -0.103353,-0.02325 -0.271302,-0.05426 -0.165365,-0.03101 -0.302307,-0.06718 -0.379822,-0.100769 -0.540019,-0.294556 -0.157613,-0.19637 -0.157613,-0.480591 0,-0.178284 0.07235,-0.335897 0.07493,-0.157613 0.224792,-0.281636 0.144694,-0.12144 0.366903,-0.191203 0.224793,-0.07235 0.501262,-0.07235 0.258382,0 0.521932,0.0646 0.266134,0.06201 0.441834,0.152446 v 0.519348 h -0.02584 q -0.186036,-0.136942 -0.452169,-0.22996 -0.266134,-0.0956 -0.521933,-0.0956 -0.266133,0 -0.449585,0.103353 -0.183451,0.10077 -0.183451,0.302308 0,0.178284 0.111104,0.268717 0.108521,0.09043 0.3514,0.147278 0.134359,0.03101 0.299723,0.06201 0.167949,0.03101 0.279053,0.05684 0.338481,0.07751 0.521933,0.266134 0.183451,0.191203 0.183451,0.506429 z m -3.002403,0.831991 h -0.483175 v -0.307475 q -0.0646,0.04393 -0.1757,0.124024 -0.10852,0.07752 -0.211873,0.124023 -0.12144,0.05943 -0.279053,0.09819 -0.157613,0.04134 -0.369487,0.04134 -0.390157,0 -0.661458,-0.258382 -0.271302,-0.258383 -0.271302,-0.658875 0,-0.328146 0.139527,-0.529684 0.14211,-0.204122 0.403076,-0.320394 0.26355,-0.116272 0.633037,-0.157613 0.369486,-0.04134 0.793233,-0.06201 v -0.07493 q 0,-0.165365 -0.05943,-0.273885 -0.05684,-0.108521 -0.165364,-0.170533 -0.103353,-0.05943 -0.248047,-0.0801 -0.144694,-0.02067 -0.302308,-0.02067 -0.191203,0 -0.42633,0.05168 -0.235128,0.04909 -0.485759,0.144694 h -0.02584 v -0.49351 q 0.14211,-0.03876 0.410827,-0.08527 0.268718,-0.04651 0.529684,-0.04651 0.304891,0 0.529684,0.05168 0.227376,0.04909 0.392741,0.170532 0.162781,0.118856 0.248047,0.307475 0.08527,0.188619 0.08527,0.467672 z m -0.483175,-0.710551 v -0.803569 q -0.222208,0.01292 -0.524516,0.03876 -0.299723,0.02584 -0.475423,0.07493 -0.20929,0.05943 -0.338481,0.186035 -0.129191,0.124024 -0.129191,0.343649 0,0.248047 0.149862,0.374654 0.149861,0.124024 0.457336,0.124024 0.255799,0 0.467672,-0.09819 0.211874,-0.100769 0.392741,-0.240295 z m -2.397788,-1.974041 q 0,0.255799 -0.09043,0.475423 -0.08785,0.217042 -0.248047,0.377239 -0.198955,0.198954 -0.470256,0.299723 -0.271302,0.09819 -0.684713,0.09819 h -0.511597 v 1.434022 h -0.511597 v -3.847312 h 1.043864 q 0.346233,0 0.586528,0.05943 0.240296,0.05684 0.426331,0.180867 0.219625,0.147278 0.338481,0.366903 0.121439,0.219625 0.121439,0.555522 z m -0.532267,0.01292 q 0,-0.198954 -0.06976,-0.346232 -0.06976,-0.147278 -0.211874,-0.240296 -0.124023,-0.0801 -0.28422,-0.113688 -0.157614,-0.03617 -0.400493,-0.03617 h -0.506429 v 1.537374 h 0.431498 q 0.310059,0 0.503846,-0.05426 0.193786,-0.05684 0.315226,-0.178284 0.12144,-0.124023 0.170532,-0.260966 0.05168,-0.136943 0.05168,-0.307475 z m 104.464916,1.43395 q 0,0.586528 -0.38757,0.958599 -0.38499,0.369487 -0.94568,0.369487 -0.28422,0 -0.51677,-0.08785 -0.23254,-0.08785 -0.41083,-0.260967 -0.2222,-0.214457 -0.34364,-0.568441 -0.11886,-0.353983 -0.11886,-0.852661 0,-0.511597 0.10852,-0.906922 0.11111,-0.395325 0.3514,-0.7028 0.22738,-0.291972 0.58653,-0.454753 0.35915,-0.165365 0.83716,-0.165365 0.15244,0 0.2558,0.01292 0.10335,0.01292 0.20929,0.04651 v 0.49351 h -0.0258 q -0.0724,-0.03876 -0.21963,-0.07235 -0.14469,-0.03617 -0.29714,-0.03617 -0.55552,0 -0.88625,0.348816 -0.33073,0.346232 -0.38499,0.937928 0.21704,-0.131775 0.42633,-0.198955 0.21188,-0.06976 0.48835,-0.06976 0.24546,0 0.43149,0.04651 0.18862,0.04393 0.38499,0.180868 0.22738,0.157613 0.34107,0.397908 0.11627,0.240296 0.11627,0.583944 z m -0.52452,0.02067 q 0,-0.240296 -0.0723,-0.397909 -0.0698,-0.157613 -0.23255,-0.273885 -0.11885,-0.08268 -0.26355,-0.108521 -0.14469,-0.02584 -0.3023,-0.02584 -0.21963,0 -0.40825,0.05168 -0.18862,0.05168 -0.38757,0.160197 -0.005,0.05684 -0.008,0.111104 -0.003,0.05168 -0.003,0.131775 0,0.408244 0.0827,0.645956 0.0853,0.235128 0.23254,0.37207 0.11886,0.113689 0.2558,0.167949 0.13952,0.05168 0.30231,0.05168 0.37465,0 0.58911,-0.227376 0.21445,-0.22996 0.21445,-0.658875 z m -2.90163,1.227317 h -2.6045 v -0.540019 q 0.27131,-0.232544 0.54261,-0.465088 0.27388,-0.232544 0.50901,-0.462505 0.49609,-0.480591 0.67955,-0.762227 0.18345,-0.284221 0.18345,-0.612366 0,-0.299724 -0.19896,-0.467672 -0.19637,-0.170533 -0.55035,-0.170533 -0.23513,0 -0.50902,0.08268 -0.27388,0.08268 -0.53485,0.253214 h -0.0258 v -0.542603 q 0.18345,-0.09043 0.48834,-0.165364 0.30747,-0.07493 0.59428,-0.07493 0.59169,0 0.92759,0.286804 0.3359,0.284221 0.3359,0.772563 0,0.219625 -0.0569,0.410828 -0.0543,0.188619 -0.16278,0.359152 -0.10077,0.160197 -0.23771,0.315226 -0.13436,0.155029 -0.32815,0.343649 -0.27646,0.271301 -0.57102,0.527099 -0.29456,0.253215 -0.55035,0.470256 h 2.06964 z m -10.72287,-1.082622 h -0.57102 v 1.082622 h -0.4961 v -1.082622 h -1.84226 v -0.594279 l 1.86293,-2.170412 h 0.47543 V 32.4312 h 0.57102 z M 111.79942,32.4312 v -1.736329 l -1.49086,1.736329 z m -2.39003,1.496034 h -2.6045 v -0.540019 q 0.27131,-0.232544 0.54261,-0.465088 0.27388,-0.232544 0.50901,-0.462505 0.49609,-0.480591 0.67955,-0.762227 0.18345,-0.284221 0.18345,-0.612366 0,-0.299724 -0.19896,-0.467672 -0.19637,-0.170533 -0.55035,-0.170533 -0.23513,0 -0.50901,0.08268 -0.27389,0.08268 -0.53486,0.253214 h -0.0258 v -0.542603 q 0.18345,-0.09043 0.48834,-0.165364 0.30747,-0.07493 0.59428,-0.07493 0.59169,0 0.92759,0.286804 0.3359,0.284221 0.3359,0.772563 0,0.219625 -0.0568,0.410828 -0.0543,0.188619 -0.16278,0.359152 -0.10077,0.160197 -0.23771,0.315226 -0.13436,0.155029 -0.32814,0.343649 -0.27647,0.271301 -0.57103,0.527099 -0.29456,0.253215 -0.55035,0.470256 h 2.06964 z m -12.671075,0 h -2.604494 v -0.540019 q 0.271302,-0.232544 0.542603,-0.465088 0.273885,-0.232544 0.509013,-0.462505 0.496094,-0.480591 0.679546,-0.762227 0.183451,-0.284221 0.183451,-0.612366 0,-0.299724 -0.198954,-0.467672 -0.196371,-0.170533 -0.550354,-0.170533 -0.235128,0 -0.509014,0.08268 -0.273885,0.08268 -0.534851,0.253214 h -0.02584 v -0.542603 q 0.183451,-0.09043 0.488342,-0.165364 0.307475,-0.07493 0.59428,-0.07493 0.591695,0 0.927592,0.286804 0.335897,0.284221 0.335897,0.772563 0,0.219625 -0.05684,0.410828 -0.05426,0.188619 -0.162781,0.359152 -0.100769,0.160197 -0.237711,0.315226 -0.134359,0.155029 -0.328146,0.343649 -0.276469,0.271301 -0.571025,0.527099 -0.294556,0.253215 -0.550354,0.470256 h 2.069642 z m -3.369305,0 h -2.604493 v -0.540019 q 0.271301,-0.232544 0.542603,-0.465088 0.273885,-0.232544 0.509013,-0.462505 0.496094,-0.480591 0.679545,-0.762227 0.183452,-0.284221 0.183452,-0.612366 0,-0.299724 -0.198955,-0.467672 -0.19637,-0.170533 -0.550354,-0.170533 -0.235128,0 -0.509013,0.08268 -0.273886,0.08268 -0.534852,0.253214 h -0.02584 v -0.542603 q 0.183452,-0.09043 0.488343,-0.165364 0.307475,-0.07493 0.594279,-0.07493 0.591696,0 0.927593,0.286804 0.335897,0.284221 0.335897,0.772563 0,0.219625 -0.05684,0.410828 -0.05426,0.188619 -0.16278,0.359152 -0.10077,0.160197 -0.237712,0.315226 -0.134359,0.155029 -0.328146,0.343649 -0.276469,0.271301 -0.571025,0.527099 -0.294555,0.253215 -0.550354,0.470256 h 2.069642 z M 82.553128,32.002286 q 0,1.036113 -0.325562,1.521872 -0.322978,0.483175 -1.005107,0.483175 -0.692465,0 -1.012859,-0.490927 -0.31781,-0.490926 -0.31781,-1.508953 0,-1.025777 0.322978,-1.51412 0.322978,-0.490926 1.007691,-0.490926 0.692465,0 1.010275,0.498678 0.320394,0.496094 0.320394,1.501201 z m -0.679545,1.173055 q 0.09043,-0.209289 0.121439,-0.490926 0.03359,-0.28422 0.03359,-0.682129 0,-0.392741 -0.03359,-0.68213 -0.03101,-0.289388 -0.124023,-0.490926 -0.09043,-0.198954 -0.248047,-0.299723 -0.15503,-0.10077 -0.400493,-0.10077 -0.242879,0 -0.403076,0.10077 -0.157614,0.100769 -0.250631,0.304891 -0.08785,0.191203 -0.12144,0.498678 -0.03101,0.307475 -0.03101,0.674377 0,0.403077 0.02842,0.674378 0.02842,0.271302 0.12144,0.485759 0.08527,0.201538 0.240296,0.307475 0.157613,0.105937 0.415995,0.105937 0.242879,0 0.403077,-0.100769 0.160197,-0.100769 0.248047,-0.304892 z m -2.684592,0.751893 h -2.604494 v -0.540019 q 0.271302,-0.232544 0.542603,-0.465088 0.273885,-0.232544 0.509013,-0.462505 0.496094,-0.480591 0.679546,-0.762227 0.183451,-0.284221 0.183451,-0.612366 0,-0.299724 -0.198954,-0.467672 -0.196371,-0.170533 -0.550354,-0.170533 -0.235128,0 -0.509014,0.08268 -0.273885,0.08268 -0.534851,0.253214 h -0.02584 v -0.542603 q 0.183451,-0.09043 0.488342,-0.165364 0.307475,-0.07493 0.59428,-0.07493 0.591695,0 0.927592,0.286804 0.335897,0.284221 0.335897,0.772563 0,0.219625 -0.05684,0.410828 -0.05426,0.188619 -0.162781,0.359152 -0.100769,0.160197 -0.237712,0.315226 -0.134358,0.155029 -0.328145,0.343649 -0.276469,0.271301 -0.571025,0.527099 -0.294558,0.253217 -0.550356,0.470258 h 2.069642 z M 66.546343,32.854947 q 0,0.498678 -0.390157,0.829408 -0.387574,0.330729 -0.976685,0.330729 -0.625286,0 -0.997356,-0.322978 -0.369487,-0.322978 -0.369487,-0.826823 0,-0.320394 0.186035,-0.578777 0.186036,-0.260966 0.524516,-0.413411 v -0.0155 q -0.310058,-0.165365 -0.45992,-0.361736 -0.147278,-0.19637 -0.147278,-0.490926 0,-0.434082 0.356568,-0.72347 0.356567,-0.289389 0.906922,-0.289389 0.576192,0 0.919841,0.276469 0.343648,0.27647 0.343648,0.7028 0,0.260966 -0.162781,0.514181 -0.162781,0.250631 -0.478007,0.392741 v 0.0155 q 0.361735,0.15503 0.552938,0.382406 0.191203,0.227376 0.191203,0.578776 z m -0.612366,-1.878439 q 0,-0.276469 -0.214457,-0.43925 -0.211874,-0.165365 -0.542603,-0.165365 -0.325562,0 -0.534852,0.15503 -0.206706,0.155029 -0.206706,0.418579 0,0.186035 0.103353,0.322978 0.105937,0.134359 0.317811,0.240296 0.0956,0.04651 0.273885,0.121439 0.180868,0.07493 0.3514,0.124024 0.255798,-0.170533 0.353984,-0.353984 0.09819,-0.183451 0.09819,-0.423747 z m 0.0801,1.927532 q 0,-0.237712 -0.105936,-0.379822 -0.103353,-0.144694 -0.408244,-0.289388 -0.12144,-0.05684 -0.266134,-0.105937 -0.144694,-0.04909 -0.38499,-0.136943 -0.232544,0.126608 -0.374654,0.343649 -0.139527,0.217041 -0.139527,0.490926 0,0.348816 0.240296,0.576193 0.240295,0.227376 0.609782,0.227376 0.377238,0 0.602031,-0.193786 0.227376,-0.193787 0.227376,-0.532268 z m -3.085086,1.023194 H 60.84643 v -0.392741 h 0.800985 V 30.955837 H 60.84643 v -0.3514 q 0.162781,0 0.348816,-0.02584 0.186035,-0.02842 0.281637,-0.0801 0.118856,-0.0646 0.186035,-0.162781 0.06976,-0.100769 0.0801,-0.268718 h 0.400493 v 3.467491 h 0.785482 z m -12.3946,-1.247987 q 0,0.586528 -0.387573,0.958599 -0.38499,0.369487 -0.94568,0.369487 -0.28422,0 -0.516764,-0.08785 -0.232544,-0.08785 -0.410828,-0.260967 -0.222209,-0.214457 -0.343649,-0.568441 -0.118856,-0.353983 -0.118856,-0.852661 0,-0.511597 0.108521,-0.906922 0.111104,-0.395325 0.3514,-0.7028 0.227376,-0.291972 0.586528,-0.454753 0.359151,-0.165365 0.837158,-0.165365 0.152446,0 0.255799,0.01292 0.103353,0.01292 0.20929,0.04651 v 0.49351 h -0.02584 q -0.07235,-0.03876 -0.219625,-0.07235 -0.144694,-0.03617 -0.297139,-0.03617 -0.555522,0 -0.886252,0.348816 -0.330729,0.346232 -0.384989,0.937928 0.217041,-0.131775 0.426331,-0.198955 0.211873,-0.06976 0.488342,-0.06976 0.245463,0 0.431499,0.04651 0.188619,0.04393 0.384989,0.180868 0.227377,0.157613 0.341065,0.397908 0.116272,0.240296 0.116272,0.583944 z m -0.524516,0.02067 q 0,-0.240296 -0.07235,-0.397909 -0.06976,-0.157613 -0.232544,-0.273885 -0.118856,-0.08268 -0.26355,-0.108521 -0.144694,-0.02584 -0.302308,-0.02584 -0.219624,0 -0.408244,0.05168 -0.188619,0.05168 -0.387573,0.160197 -0.0052,0.05684 -0.0078,0.111104 -0.0026,0.05168 -0.0026,0.131775 0,0.408244 0.08268,0.645956 0.08527,0.235128 0.232544,0.37207 0.118856,0.113689 0.255799,0.167949 0.139526,0.05168 0.302307,0.05168 0.374654,0 0.589112,-0.227376 0.214457,-0.22996 0.214457,-0.658875 z m -3.121258,1.227317 h -2.082562 v -0.392741 h 0.800985 v -2.578656 h -0.800985 v -0.3514 q 0.162781,0 0.348816,-0.02584 0.186035,-0.02842 0.281637,-0.0801 0.118856,-0.0646 0.186035,-0.162781 0.06976,-0.100769 0.0801,-0.268718 h 0.400492 v 3.467491 h 0.785483 z M 94.59642,22.701227 H 94.110661 V 22.39892 q -0.209289,0.180868 -0.436666,0.281637 -0.227376,0.100769 -0.49351,0.100769 -0.516765,0 -0.821656,-0.397909 -0.302307,-0.397909 -0.302307,-1.103292 0,-0.366903 0.103353,-0.653708 0.105937,-0.286804 0.28422,-0.488342 0.1757,-0.196371 0.408244,-0.299724 0.235128,-0.103353 0.485759,-0.103353 0.227377,0 0.403077,0.04909 0.1757,0.04651 0.369486,0.147278 v -1.25057 h 0.485759 z m -0.485759,-0.710551 v -1.656231 q -0.19637,-0.08785 -0.3514,-0.121439 -0.155029,-0.03359 -0.338481,-0.03359 -0.408244,0 -0.63562,0.284221 -0.227376,0.28422 -0.227376,0.806152 0,0.514181 0.175699,0.782899 0.1757,0.266134 0.563274,0.266134 0.206706,0 0.418579,-0.09043 0.211874,-0.09302 0.395325,-0.237712 z M 91.519086,21.308547 H 89.3926 q 0,0.266133 0.0801,0.465088 0.0801,0.19637 0.219625,0.322978 0.134359,0.124023 0.317811,0.186035 0.186035,0.06201 0.408244,0.06201 0.294555,0 0.591695,-0.116272 0.299724,-0.118856 0.426331,-0.232544 h 0.02584 v 0.529683 q -0.245463,0.103353 -0.501262,0.173117 -0.255798,0.06976 -0.537435,0.06976 -0.718303,0 -1.121379,-0.387574 -0.403076,-0.390157 -0.403076,-1.105876 0,-0.707968 0.384989,-1.123963 0.387574,-0.415996 1.018027,-0.415996 0.583944,0 0.89917,0.341065 0.31781,0.341065 0.31781,0.968934 z m -0.472839,-0.372071 q -0.0026,-0.382406 -0.193787,-0.591695 -0.188619,-0.20929 -0.576193,-0.20929 -0.390157,0 -0.622701,0.22996 -0.22996,0.22996 -0.260966,0.571025 z m -2.679425,0.372071 h -2.126486 q 0,0.266133 0.0801,0.465088 0.0801,0.19637 0.219625,0.322978 0.134359,0.124023 0.31781,0.186035 0.186036,0.06201 0.408244,0.06201 0.294556,0 0.591696,-0.116272 0.299723,-0.118856 0.426331,-0.232544 h 0.02584 v 0.529683 q -0.245463,0.103353 -0.501262,0.173117 -0.255798,0.06976 -0.537435,0.06976 -0.718303,0 -1.121379,-0.387574 -0.403077,-0.390157 -0.403077,-1.105876 0,-0.707968 0.38499,-1.123963 0.387574,-0.415996 1.018026,-0.415996 0.583944,0 0.899171,0.341065 0.31781,0.341065 0.31781,0.968934 z m -0.472839,-0.372071 q -0.0026,-0.382406 -0.193787,-0.591695 -0.188619,-0.20929 -0.576193,-0.20929 -0.390157,0 -0.622701,0.22996 -0.22996,0.22996 -0.260966,0.571025 z m -2.700096,0.286805 q 0,0.351399 -0.100769,0.643371 -0.100769,0.289389 -0.28422,0.490927 -0.170533,0.191203 -0.403077,0.29714 -0.22996,0.103352 -0.488342,0.103352 -0.224793,0 -0.408244,-0.04909 -0.180868,-0.04909 -0.369487,-0.152446 v 1.20923 h -0.485759 v -3.950666 h 0.485759 v 0.302307 Q 83.333535,19.954625 83.57383,19.846105 83.816709,19.735 84.090595,19.735 q 0.521932,0 0.81132,0.395325 0.291972,0.392741 0.291972,1.092958 z m -0.501261,0.01292 q 0,-0.521933 -0.178284,-0.780315 -0.178284,-0.258382 -0.547771,-0.258382 -0.209289,0 -0.421163,0.09043 -0.211873,0.09043 -0.40566,0.237711 v 1.63556 q 0.206706,0.09302 0.353984,0.126608 0.149861,0.03359 0.33848,0.03359 0.405661,0 0.633037,-0.273885 0.227377,-0.273885 0.227377,-0.81132 z m -2.821535,0.366902 q 0,0.224792 -0.105937,0.444417 -0.103353,0.219625 -0.291972,0.372071 -0.206706,0.165364 -0.483175,0.258382 -0.273885,0.09302 -0.661459,0.09302 -0.415995,0 -0.749309,-0.07752 -0.330729,-0.07751 -0.674377,-0.22996 v -0.640789 h 0.03617 q 0.291972,0.24288 0.674378,0.374655 0.382406,0.131775 0.718303,0.131775 0.475423,0 0.738973,-0.178284 0.266134,-0.178284 0.266134,-0.475423 0,-0.255799 -0.126607,-0.377239 -0.124024,-0.121439 -0.379822,-0.188619 -0.193787,-0.05168 -0.421164,-0.08527 -0.224792,-0.03359 -0.478007,-0.08527 -0.511597,-0.108521 -0.759644,-0.369487 -0.245463,-0.26355 -0.245463,-0.684713 0,-0.483175 0.408244,-0.79065 0.408244,-0.310059 1.036113,-0.310059 0.40566,0 0.744141,0.07751 0.338481,0.07752 0.599447,0.191203 v 0.604615 h -0.03617 q -0.219625,-0.186036 -0.578777,-0.307475 -0.356567,-0.124024 -0.731222,-0.124024 -0.410828,0 -0.661458,0.170533 -0.248047,0.170532 -0.248047,0.439249 0,0.240296 0.124023,0.377239 0.124024,0.136942 0.436666,0.209289 0.165365,0.03617 0.470256,0.08785 0.304891,0.05168 0.516765,0.105937 0.428914,0.113688 0.645955,0.343649 0.217042,0.22996 0.217042,0.643372 z" />
      </g>
    </g>
  </g>
</svg>
